<?xml version="1.0" encoding="utf-8"?>
<!-- Generator: Adobe Illustrator 15.0.0, SVG Export Plug-In . SVG Version: 6.00 Build 0)  -->
<!DOCTYPE svg PUBLIC "-//W3C//DTD SVG 1.1//EN" "http://www.w3.org/Graphics/SVG/1.1/DTD/svg11.dtd">
<svg version="1.1" id="Layer_1" xmlns="http://www.w3.org/2000/svg" xmlns:xlink="http://www.w3.org/1999/xlink" x="0px" y="0px"
	 width="50px" height="50px" viewBox="0 0 50 50" enable-background="new 0 0 50 50" xml:space="preserve">
<path fill-rule="evenodd" clip-rule="evenodd" fill="#FFFFFF" d="M10,0h30c5.522,0,10,4.477,10,10v30c0,5.523-4.478,10-10,10H10
	C4.477,50,0,45.523,0,40V10C0,4.477,4.477,0,10,0z M43.327,4.508v6.699h-4.861c0,0-2.755,0.162-2.755,3.62v4.754h7.454l-1.134,7.618
	h-6.429v19.448h-7.725V27.144h-6.373v-7.563h6.535v-6.105c0,0-0.485-9.184,8.589-9.184L43.327,4.508z"/>
</svg>
