<?xml version="1.0" encoding="utf-8"?>
<!-- Generator: Adobe Illustrator 15.0.0, SVG Export Plug-In . SVG Version: 6.00 Build 0)  -->
<!DOCTYPE svg PUBLIC "-//W3C//DTD SVG 1.1//EN" "http://www.w3.org/Graphics/SVG/1.1/DTD/svg11.dtd">
<svg version="1.1" id="Layer_1" xmlns="http://www.w3.org/2000/svg" xmlns:xlink="http://www.w3.org/1999/xlink" x="0px" y="0px"
	 width="50px" height="50px" viewBox="0 0 50 50" enable-background="new 0 0 50 50" xml:space="preserve">
<path fill-rule="evenodd" clip-rule="evenodd" fill="#FFFFFF" d="M10,0h30c5.522,0,10,4.477,10,10v30c0,5.523-4.478,10-10,10H10
	C4.477,50,0,45.523,0,40V10C0,4.477,4.477,0,10,0z M31.125,10.25H26L27.938,12c4.375,5.5-2.875,11.25-2.875,11.25
	c-1.938,1.25,1.25,3.313,1.25,3.313c5.938,4.813,4.625,7.063,4.625,7.063C30.75,37.813,26.5,40,26.5,40
	c-3.625,2.313-9.938,1.375-9.938,1.375c-6.875-1-6.688-6.563-6.688-6.563c0.688-7.688,9.844-7,9.844-7
	c2.875,0.5,0.094-3.75,0.094-3.75c-8.938-0.813-8.125-7.415-8.125-7.415c-0.06-7.825,7.875-8.125,7.875-8.125h12.083L31.125,10.25z
	 M35,18.031h2v4h4.031v1.906h-4V28h-2.094v-3.969h-3.969l0.031-2h4V18.031z M23.862,13.83c1.111,1.832,1.111,3.054,1.111,3.054
	c0.389,4.83-3.553,4.663-3.553,4.663c-3.775-0.5-5.107-4.663-5.107-4.663c-1.499-4.886,2.887-6.051,2.887-6.051
	c2.775-0.222,4.219,2.276,4.219,2.276L23.862,13.83z M24.764,31.066c2.72,1.928,2.439,3.231,2.439,3.231
	c0.055,4.14-6.465,4.14-6.465,4.14c-6.918-0.057-6.521-4.366-6.521-4.366c-0.17-1.928,3.232-3.855,3.232-3.855
	c4.14-1.645,6.748,0.284,6.748,0.284L24.764,31.066z"/>
</svg>
