<?xml version="1.0" encoding="utf-8"?>
<!-- Generator: Adobe Illustrator 15.0.0, SVG Export Plug-In . SVG Version: 6.00 Build 0)  -->
<!DOCTYPE svg PUBLIC "-//W3C//DTD SVG 1.1//EN" "http://www.w3.org/Graphics/SVG/1.1/DTD/svg11.dtd">
<svg version="1.1" id="Layer_1" xmlns="http://www.w3.org/2000/svg" xmlns:xlink="http://www.w3.org/1999/xlink" x="0px" y="0px"
	 width="50px" height="50px" viewBox="0 0 50 50" enable-background="new 0 0 50 50" xml:space="preserve">
<path fill-rule="evenodd" clip-rule="evenodd" fill="#FFFFFF" d="M10,0h30c5.523,0,10,4.477,10,10v30c0,5.523-4.477,10-10,10H10
	C4.477,50,0,45.523,0,40V10C0,4.477,4.477,0,10,0z M-0.167,14.917H15.5L14.5,17H-0.167V14.917z M49.927,10v30 M50.094,17H35.427
	l-1-2.083h15.667V17z M25.042,10.12c8.149,0,14.754,6.606,14.754,14.755c0,8.148-6.605,14.754-14.754,14.754
	s-14.754-6.606-14.754-14.754C10.287,16.726,16.893,10.12,25.042,10.12z M25.042,12.86c6.635,0,12.015,5.379,12.015,12.015
	c0,6.635-5.379,12.014-12.015,12.014S13.028,31.51,13.028,24.875C13.028,18.239,18.407,12.86,25.042,12.86z M25.044,16.654
	c4.54,0,8.22,3.681,8.22,8.221s-3.68,8.22-8.22,8.22s-8.22-3.68-8.22-8.22S20.504,16.654,25.044,16.654z M37,3h7
	c0.552,0,1,0.448,1,1v7.969c0,0.552-0.448,1-1,1h-7c-0.552,0-1-0.448-1-1V4C36,3.448,36.448,3,37,3z M54.344,12.031 M38.703,4.995
	h3.625c0.387,0,0.7,0.313,0.7,0.7v4.609c0,0.387-0.313,0.7-0.7,0.7h-3.625c-0.387,0-0.7-0.313-0.7-0.7V5.695
	C38.003,5.309,38.316,4.995,38.703,4.995z M10.969-0.594h2.063v13.563h-2.063V-0.594z M6.938-0.594H9v13.563H6.938V-0.594z
	 M2.938-0.594H5v13.563H2.938V-0.594z"/>
</svg>
