<?xml version="1.0" encoding="utf-8"?>
<!-- Generator: Adobe Illustrator 15.0.0, SVG Export Plug-In . SVG Version: 6.00 Build 0)  -->
<!DOCTYPE svg PUBLIC "-//W3C//DTD SVG 1.1//EN" "http://www.w3.org/Graphics/SVG/1.1/DTD/svg11.dtd">
<svg version="1.1" id="Layer_1" xmlns="http://www.w3.org/2000/svg" xmlns:xlink="http://www.w3.org/1999/xlink" x="0px" y="0px"
	 width="50px" height="50px" viewBox="0 0 50 50" enable-background="new 0 0 50 50" xml:space="preserve">
<path fill-rule="evenodd" clip-rule="evenodd" fill="#FFFFFF" d="M10,0h30c5.523,0,10,4.477,10,10v30c0,5.523-4.477,10-10,10H10
	C4.477,50,0,45.523,0,40V10C0,4.477,4.477,0,10,0z M20.979,19h6.271v3c0,0,2.75-3.917,6.917-3.833c0,0,8.896-0.333,8.896,7.833v16
	H36V28.75c0,0,0.083-4.5-4.167-4.333c0,0-3.563,0.583-3.896,5.25V42h-7L20.979,19z M9.042,18.917H16V42H9.042V18.917z M12.438,6.75
	c2.508,0,4.542,2.033,4.542,4.542s-2.033,4.542-4.542,4.542S7.896,13.8,7.896,11.292S9.929,6.75,12.438,6.75z"/>
</svg>
