<?xml version="1.0" encoding="utf-8"?>
<!-- Generator: Adobe Illustrator 15.0.0, SVG Export Plug-In . SVG Version: 6.00 Build 0)  -->
<!DOCTYPE svg PUBLIC "-//W3C//DTD SVG 1.1//EN" "http://www.w3.org/Graphics/SVG/1.1/DTD/svg11.dtd">
<svg version="1.1" id="Layer_1" xmlns="http://www.w3.org/2000/svg" xmlns:xlink="http://www.w3.org/1999/xlink" x="0px" y="0px"
	 width="50px" height="50px" viewBox="0 0 50 50" enable-background="new 0 0 50 50" xml:space="preserve">
<path fill-rule="evenodd" clip-rule="evenodd" fill="#FFFFFF" d="M10,0h30c5.523,0,10,4.477,10,10v30c0,5.523-4.477,10-10,10H10
	C4.477,50,0,45.523,0,40V10C0,4.477,4.477,0,10,0z M25.083,5.486c10.801,0,19.556,8.755,19.556,19.556s-8.755,19.556-19.556,19.556
	c-10.8,0-19.556-8.755-19.556-19.556S14.282,5.486,25.083,5.486z M16.833,28c0,0,1.333,1.75,0.25,2.667c0,0-1.583,1.583-3.083-0.583
	c0,0-3.917-6.333,0.167-12.333c0,0,3.833-7.333,15.75-5c0,0,10.75,2.5,7.25,16.667c0,0-5.667,12.667-14,4.75l-3.333,10.167
	L18.5,44.25l-1.167-0.333l-0.25-0.583l3.25-14.917c0,0,0.583-1-0.5-1.667c0,0-1-1.167-0.083-3.917c0,0,1.75-4.333,5.25-2
	c0,0,1.917,1.417,0.167,5.667l-0.917,1.25c0,0-1.167,3.167,0.75,4.417c0,0,5.333,3,7.417-3.833c0,0,3.75-9.417-4.583-12.167
	c0,0-7.5-2.083-11.083,4.667c0,0-1.5,3.417-0.667,6.25l0.25,0.583L16.833,28z"/>
</svg>
