<?xml version="1.0" encoding="utf-8"?>
<!-- Generator: Adobe Illustrator 15.0.0, SVG Export Plug-In . SVG Version: 6.00 Build 0)  -->
<!DOCTYPE svg PUBLIC "-//W3C//DTD SVG 1.1//EN" "http://www.w3.org/Graphics/SVG/1.1/DTD/svg11.dtd">
<svg version="1.1" id="Layer_1" xmlns="http://www.w3.org/2000/svg" xmlns:xlink="http://www.w3.org/1999/xlink" x="0px" y="0px"
	 width="50px" height="50px" viewBox="0 0 50 50" enable-background="new 0 0 50 50" xml:space="preserve">
<path fill-rule="evenodd" clip-rule="evenodd" fill="#FFFFFF" d="M10,0h30c5.523,0,10,4.477,10,10v30c0,5.523-4.477,10-10,10H10
	C4.477,50,0,45.523,0,40V10C0,4.477,4.477,0,10,0z M40.083,14.583l4.583-1.333l-4,3.833c-0.833,0.667-0.5,2.25-0.5,2.25
	c-1.167,12.25-8.25,16.833-8.25,16.833C19.5,46,6.083,37.25,6.083,37.25c9.167,1.417,11.25-3.417,11.25-3.417
	c-7.333-1.083-7.5-5.5-7.5-5.5c2.25,1.333,4.333,0.25,4.333,0.25c-7.5-1.833-7.25-8.417-7.25-8.417c2.5,2.833,4.25,1.333,4.25,1.333
	C4.833,18.75,8,10.25,8,10.25C14.75,19.833,24.833,19,24.833,19c-1.833-7.417,5-9.417,5-9.417c6-1.333,8,1.75,8,1.75
	c2.083,1.417,5.417-1.5,5.417-1.5L40.083,14.583z"/>
</svg>
