<?xml version="1.0" encoding="utf-8"?>
<!-- Generator: Adobe Illustrator 15.0.0, SVG Export Plug-In . SVG Version: 6.00 Build 0)  -->
<!DOCTYPE svg PUBLIC "-//W3C//DTD SVG 1.1//EN" "http://www.w3.org/Graphics/SVG/1.1/DTD/svg11.dtd">
<svg version="1.1" id="Layer_1" xmlns="http://www.w3.org/2000/svg" xmlns:xlink="http://www.w3.org/1999/xlink" x="0px" y="0px"
	 width="50px" height="50px" viewBox="0 0 50 50" enable-background="new 0 0 50 50" xml:space="preserve">
<path fill-rule="evenodd" clip-rule="evenodd" fill="#FFFFFF" d="M10,0h30c5.523,0,10,4.477,10,10v30c0,5.523-4.477,10-10,10H10
	C4.477,50,0,45.523,0,40V10C0,4.477,4.477,0,10,0z M14,14h22c2.761,0,5,2.239,5,5v12.833c0,2.761-2.239,5-5,5H14
	c-2.761,0-5-2.239-5-5V19C9,16.239,11.239,14,14,14z M30.938,25.375L22,30.875v-11.75L30.938,25.375z"/>
</svg>
