<?xml version="1.0" encoding="utf-8"?>
<!-- Generator: Adobe Illustrator 15.0.0, SVG Export Plug-In . SVG Version: 6.00 Build 0)  -->
<!DOCTYPE svg PUBLIC "-//W3C//DTD SVG 1.0//EN" "http://www.w3.org/TR/2001/REC-SVG-20010904/DTD/svg10.dtd" [
	<!ENTITY ns_flows "http://ns.adobe.com/Flows/1.0/">
	<!ENTITY ns_extend "http://ns.adobe.com/Extensibility/1.0/">
	<!ENTITY ns_ai "http://ns.adobe.com/AdobeIllustrator/10.0/">
	<!ENTITY ns_graphs "http://ns.adobe.com/Graphs/1.0/">
]>
<svg version="1.0" id="Layer_1" xmlns:x="&ns_extend;" xmlns:i="&ns_ai;" xmlns:graph="&ns_graphs;"
	 xmlns="http://www.w3.org/2000/svg" xmlns:xlink="http://www.w3.org/1999/xlink" xmlns:a="http://ns.adobe.com/AdobeSVGViewerExtensions/3.0/"
	 x="0px" y="0px" width="150px" height="14px" viewBox="0 0 150 14" enable-background="new 0 0 150 14" xml:space="preserve">
<radialGradient id="SVGID_1_" cx="102.1563" cy="2.8906" r="1.4014" gradientUnits="userSpaceOnUse">
	<stop  offset="0" style="stop-color:#FFFFFF"/>
	<stop  offset="1" style="stop-color:#FFFFFF;stop-opacity:0"/>
	<a:midPointStop  offset="0" style="stop-color:#FFFFFF"/>
	<a:midPointStop  offset="0.5" style="stop-color:#FFFFFF"/>
	<a:midPointStop  offset="1" style="stop-color:#FFFFFF;stop-opacity:0"/>
</radialGradient>
<circle fill="url(#SVGID_1_)" cx="102.156" cy="2.891" r="1.401"/>
<path fill="#FFFFFF" d="M85.819,4.166c0,0,0.521,0.691,0.736,0.746c0,0-0.551,0.033-0.787-0.825L85.819,4.166L85.819,4.166z
	 M87.021,5.257c0,0,0.461,0.303,0.553,0.303l-0.266,0.035l-0.379-0.279L87.021,5.257L87.021,5.257z M87.101,5.77l0.299,0.06
	L87.388,5.92l-0.217,0.013L87.101,5.77L87.101,5.77z M88.673,4.673c0,0,0.344,0.232,0.481,0.569c0,0,0.081,0.187-0.08,0.129
	c0,0,0.067-0.232-0.482-0.745L88.673,4.673L88.673,4.673z M88.491,6.248l0.075,0.108c0,0,0.188,0.144,0.166,0.216
	c0,0-0.3-0.047-0.494-0.383l0.011-0.117L88.17,5.991L88.491,6.248z"/>
<path fill="#FFFFFF" d="M43.81,5.821c0.036-0.061,0.066-0.121,0.103-0.181c0,0,0,0.205-0.103,0.463V5.821L43.81,5.821z M43.81,7.093
	V7.039l0.126-0.048c0.503-0.041,1.398-0.498,1.398-0.498l0.27-0.192C45.118,7.208,44.128,7.141,43.81,7.093L43.81,7.093z
	 M49.321,3.018c0,0-0.376,0.288-0.93,0.574c0,0,0.708,0.224,1.172-0.689L49.321,3.018L49.321,3.018z M48.663,4.47
	c0,0,0.48,0.144,0.815,0.06l-0.395,0.228l-0.666-0.354L48.663,4.47L48.663,4.47z M47.374,6.343c0,0,0.083-0.811,0.564-0.246
	l-0.146,0.084c0,0-0.25-0.396-0.275,0.162H47.374L47.374,6.343z M48.519,6.596c0,0,0.396-0.457,0.565,0.144l-0.084,0.108
	c0,0-0.084-0.397-0.27-0.252H48.519L48.519,6.596z M45.958,4.092L44.98,4.319l-0.228,0.126h0.389l0.701-0.244L45.958,4.092
	L45.958,4.092z M52.519,6.193c0,0-0.604,0.57-1.061,0.839c0,0,0.329,0.271,0.877-0.419L52.519,6.193L52.519,6.193z M54.146,8.325
	c0,0-0.985,0.211-1.355-0.043c0,0,0.538,0.422,1.187,0.271L54.146,8.325L54.146,8.325z M48.134,3.758c0,0-0.648,0.42-0.792,0.792
	c0,0-0.271,0.313-0.414-0.06c0,0,0.204,0.373,0.228,0.522c0,0,0.342-0.468,0.653-0.816c0.187-0.205,0.408-0.379,0.408-0.379
	L48.134,3.758L48.134,3.758z M44.159,8.603c0,0,1.001,0.363,1.307,0.144c0,0-0.39,0.415-1.139,0.078L44.159,8.603L44.159,8.603z
	 M49.803,6.324c0,0-0.023,0.307,0.475,0.169L49.75,6.769L49.803,6.324L49.803,6.324z M49.827,7.549c0,0,1.108-0.084,1.468-0.612
	c0,0,0.337,0.69-1.636,0.636L49.827,7.549L49.827,7.549z M143.265,3.161l-0.183,0.355l-0.339,0.829l-0.542,0.282
	c0,0,0.324-0.324,0.582-0.673C143.058,3.573,143.265,3.161,143.265,3.161L143.265,3.161z M141.823,3.768
	c0,0,0.036,0.397-0.189,0.156c0,0,0.264,0.4,0.252,0.568l0.07-0.5L141.823,3.768L141.823,3.768z M146.465,4.292l0.051,0.427
	c0.074-0.558,0.672-1.109,0.672-1.109l-0.328,0.161C146.387,4.063,146.465,4.292,146.465,4.292L146.465,4.292z M143.853,10.083
	l0.058,1.368l0.156-0.471l0.097-0.612L143.853,10.083L143.853,10.083z M141.912,5.367c0,0,0.081,0.784-0.27,0.299l0.147,0.391
	c0,0,0.05,0.335,0.251,0.374L141.912,5.367L141.912,5.367z M147.019,4.758c0,0-0.384,0.583-0.713,0.667c0,0,0.167,0.3,0.63-0.318
	l0.268-0.433L147.019,4.758L147.019,4.758z M145.039,8.458c0,0-0.45,1.566-1.05,1.303c0,0-0.269-0.535-0.281-0.854
	c0,0,0.148,0.62,0.131,0.955l0.049,0.349c0,0,0.27-0.318,0.433-0.349c0,0,0.418,0.114,0.813-1.687L145.039,8.458L145.039,8.458z
	 M145.291,8.193c0,0-0.217,0.78,0.72,0.031c0,0-0.316,0.449-0.835,0.438L145.291,8.193L145.291,8.193z M143.637,10.013V9.778
	c0.118,0.385-0.013,0.75-0.013,0.75c-0.288,0.781-0.572-0.271-0.572-0.271C143.438,10.914,143.637,10.013,143.637,10.013
	L143.637,10.013z M142.768,8.239c0,0-0.013,0.48-0.395,0.198c0,0,0.363,0.349,0.363,0.563L142.768,8.239L142.768,8.239z
	 M144.212,6.819c0,0-0.601,0.619-0.552,0.319l-0.102,0.499c0,0,0.684-0.583,0.75-0.948L144.212,6.819L144.212,6.819z M140.636,7.94
	c0,0,0.401-0.168,0.721,0.018l0.114,0.134l-0.546-0.097L140.636,7.94L140.636,7.94z M103.458,1.178c0,0,0.894,1.105,1.629,0.895
	c0,0,0.213,0.234-0.567,0.107c0,0-0.466-0.125-0.902-0.733L103.458,1.178L103.458,1.178z M101.892,1.238
	c0,0,0.234,0.421,0.422,0.421c0,0-0.043,0.33-0.422-0.145V1.238L101.892,1.238z M102.595,1.955l-0.224-0.012l0.181,0.235
	l0.263-0.012l0.188,0.114l-0.158-0.198C102.707,2.057,102.595,1.955,102.595,1.955L102.595,1.955z M102.461,0.521l-0.283,0.023
	c1.097-0.247,1.126,0.534,1.126,0.534C103.218,0.727,102.461,0.521,102.461,0.521L102.461,0.521z M105.539,8.711l-0.02,0.377
	l0.296,0.254l-0.024-0.193C105.664,9.048,105.539,8.711,105.539,8.711L105.539,8.711z M105.733,10.42l0.026,0.92l0.229,0.023
	C105.922,11.298,105.733,10.42,105.733,10.42L105.733,10.42z M105.51,6.993l-0.047-0.329l-0.035,0.659l0.035,0.645l0.168-0.042
	C105.56,7.828,105.51,6.993,105.51,6.993L105.51,6.993z M105.354,0.505l0.102,0.729l0.187-0.253l-0.229-0.851L105.354,0.505z
	 M42.551,6.979c0,0,0.809-0.427,1.259-1.158v0.282c-0.108,0.27-0.324,0.587-0.773,0.792l-0.72,0.229L42.551,6.979L42.551,6.979z
	 M43.81,7.039l-0.102,0.037c0,0,0.036,0.005,0.102,0.018V7.039L43.81,7.039z M38.895,5.845c0,0,0.234,1.261,0.533,0.813l0.081,0.621
	c0,0-0.861-0.388-0.708-1.779L38.895,5.845L38.895,5.845z M38.514,3.601c0,0-0.058,0.774,0.336,0.294l-0.27,0.709
	c0,0-0.294-0.811-0.042-1.249L38.514,3.601L38.514,3.601z M40.722,7.453c0,0,0.108,0.373,0.363-0.074l-0.204,1.198l-0.101-0.485
	L40.722,7.453L40.722,7.453z M41.165,5.863l-0.06-0.396c-0.102,0.833,0.21,2.149,0.21,2.149l0.083-0.229
	c0.043-0.336,0.792-1.711,0.792-1.711c-0.354,0.421-0.774,1.188-0.774,1.188C41.147,6.89,41.165,5.863,41.165,5.863L41.165,5.863z
	 M37.813,5.986c0,0,0.353,0.455,0.648,0.598l0.083,0.248l-0.804-0.68l-0.09-0.368L37.813,5.986L37.813,5.986z M42.521,7.85
	c0,0,0.582,0.198,1.025,0.114c0,0-0.192,0.5-0.972,0.083L42.521,7.85z M105.462,2.233l-0.047-0.584l-0.035,1.172l0.035,1.147
	l0.168-0.075C105.512,3.718,105.462,2.233,105.462,2.233L105.462,2.233z M105.495,4.296l-0.027-0.229l-0.074,0.449l-0.004,0.445
	l0.17-0.015C105.495,4.873,105.495,4.296,105.495,4.296L105.495,4.296z M145.35,6.675c0,0,0.104,0.969-0.178,1.358
	c0,0,0.449,0.168,0.398-0.911l-0.097-0.704L145.35,6.675L145.35,6.675z M142.83,9.375c0,0,0.191-0.282,0.236-1.094
	c0.016-0.251-0.077-0.533-0.181-0.884C142.886,7.397,142.97,8.368,142.83,9.375z M39.355,9.015L39.342,8.92
	c0.138,0.169-0.023,0.48-0.023,0.48l-0.147-0.272C39.387,9.313,39.355,9.015,39.355,9.015L39.355,9.015z M40.822,11.151l0.008,0.402
	l-0.302-1.032c-0.107-0.705,0.125-1.251,0.385-1.632l0.367-0.271C40.704,9.828,40.822,11.151,40.822,11.151L40.822,11.151z
	 M39.987,9.964c0,0,0.118-1.197-0.333-2.464l0.296,0.343c0.207,0.418,0.387,0.981,0.288,1.608l-0.264,0.884L39.987,9.964
	L39.987,9.964z"/>
<g>
	<g>
		<path fill-rule="evenodd" clip-rule="evenodd" fill="#8F98FF" d="M-2.5,12.1h155V14h-155V12.1z"/>
		<path fill-rule="evenodd" clip-rule="evenodd" fill="#4F5DFF" d="M-2.5,12.1h155v0.4h-155V12.1z"/>
	</g>
	<g>
		<g>
			<path fill-rule="evenodd" clip-rule="evenodd" fill="#0B008A" d="M49.972,2.148c0,0-0.314,0.165-0.325,0.461
				c0,0,0.188,0,0.317-0.405L49.972,2.148z"/>
			<path fill-rule="evenodd" clip-rule="evenodd" fill="#0B008A" d="M50.16,2.587c0,0-0.225-0.034-0.411,0.093
				c0,0,0.082,0.083,0.357-0.055L50.16,2.587z"/>
			<path fill-rule="evenodd" clip-rule="evenodd" fill="#0B008A" d="M49.391,2.302c0,0,0.227,0.121,0.175,0.367
				c0,0-0.21-0.04-0.172-0.313L49.391,2.302z"/>
			<path fill-rule="evenodd" clip-rule="evenodd" fill="#0B008A" d="M49.455,2.837c0,0,0.035-0.154-0.266-0.245
				c0,0,0.022,0.211,0.22,0.244L49.455,2.837z"/>
			<path fill-rule="evenodd" clip-rule="evenodd" fill="#0B008A" d="M50.049,2.889c0,0-0.127-0.14-0.373-0.054
				c0,0,0.089,0.172,0.328,0.072L50.049,2.889z"/>
			<path fill-rule="evenodd" clip-rule="evenodd" fill="#0B008A" d="M49.901,3.086c0,0-0.11-0.163-0.291-0.11
				c0,0,0.082,0.153,0.248,0.119L49.901,3.086z"/>
			<path fill-rule="evenodd" clip-rule="evenodd" fill="#0B008A" d="M52.245,3.797c0,0-0.166,0.313-0.009,0.563
				c0,0,0.155-0.105,0.034-0.513L52.245,3.797z"/>
			<path fill-rule="evenodd" clip-rule="evenodd" fill="#0B008A" d="M52.648,4.053c0,0-0.205,0.099-0.287,0.309
				c0,0,0.114,0.021,0.264-0.247L52.648,4.053z"/>
			<path fill-rule="evenodd" clip-rule="evenodd" fill="#0B008A" d="M51.853,4.251c0,0,0.255-0.027,0.351,0.205
				c0,0-0.195,0.085-0.318-0.162L51.853,4.251z"/>
			<path fill-rule="evenodd" clip-rule="evenodd" fill="#0B008A" d="M52.207,4.657c0,0-0.059-0.148-0.357-0.053
				c0,0,0.138,0.161,0.319,0.077L52.207,4.657z"/>
			<path fill-rule="evenodd" clip-rule="evenodd" fill="#0B008A" d="M52.727,4.364c0,0-0.184-0.044-0.339,0.166
				c0,0,0.171,0.092,0.313-0.125L52.727,4.364z"/>
			<path fill-rule="evenodd" clip-rule="evenodd" fill="#0B008A" d="M52.716,4.61c0,0-0.184-0.072-0.302,0.073
				c0,0,0.154,0.08,0.271-0.042L52.716,4.61z"/>
			<path fill-rule="evenodd" clip-rule="evenodd" fill="#0B008A" d="M54.135,5.854c0,0-0.333,0.126-0.379,0.418
				c0,0,0.187,0.022,0.363-0.363L54.135,5.854z"/>
			<path fill-rule="evenodd" clip-rule="evenodd" fill="#0B008A" d="M54.269,6.313c0,0-0.219-0.061-0.42,0.042
				c0,0,0.072,0.093,0.362-0.011L54.269,6.313z"/>
			<path fill-rule="evenodd" clip-rule="evenodd" fill="#0B008A" d="M53.54,5.937c0,0,0.209,0.147,0.128,0.386
				c0,0-0.203-0.065-0.133-0.332L53.54,5.937z"/>
			<path fill-rule="evenodd" clip-rule="evenodd" fill="#0B008A" d="M53.538,6.476c0,0,0.054-0.149-0.233-0.275
				c0,0-0.003,0.212,0.188,0.269L53.538,6.476z"/>
			<path fill-rule="evenodd" clip-rule="evenodd" fill="#0B008A" d="M54.122,6.599c0,0-0.109-0.154-0.364-0.099
				c0,0,0.067,0.181,0.317,0.111L54.122,6.599z"/>
			<path fill-rule="evenodd" clip-rule="evenodd" fill="#0B008A" d="M53.951,6.776c0,0-0.09-0.176-0.274-0.145
				c0,0,0.063,0.162,0.231,0.148L53.951,6.776z"/>
			<path fill-rule="evenodd" clip-rule="evenodd" fill="#0B008A" d="M55.62,8.061c0,0-0.309-0.176-0.563-0.026
				c0,0,0.102,0.158,0.512,0.05L55.62,8.061z"/>
			<path fill-rule="evenodd" clip-rule="evenodd" fill="#0B008A" d="M55.352,8.455c0,0-0.092-0.208-0.3-0.296
				c0,0-0.025,0.113,0.238,0.271L55.352,8.455z"/>
			<path fill-rule="evenodd" clip-rule="evenodd" fill="#0B008A" d="M55.178,7.653c0,0,0.021,0.256-0.216,0.345
				c0,0-0.078-0.198,0.172-0.313L55.178,7.653z"/>
			<path fill-rule="evenodd" clip-rule="evenodd" fill="#0B008A" d="M54.761,7.996c0,0,0.15-0.054,0.064-0.356
				c0,0-0.165,0.133-0.088,0.316L54.761,7.996z"/>
			<path fill-rule="evenodd" clip-rule="evenodd" fill="#0B008A" d="M55.038,8.524c0,0,0.049-0.183-0.156-0.344
				c0,0-0.097,0.167,0.115,0.315L55.038,8.524z"/>
			<path fill-rule="evenodd" clip-rule="evenodd" fill="#0B008A" d="M54.792,8.506c0,0,0.078-0.182-0.063-0.304
				c0,0-0.085,0.15,0.033,0.272L54.792,8.506z"/>
			<path fill-rule="evenodd" clip-rule="evenodd" fill="#0B008A" d="M54.917,9.703c0,0-0.046-0.352-0.319-0.465
				c0,0-0.065,0.177,0.27,0.438L54.917,9.703z"/>
			<path fill-rule="evenodd" clip-rule="evenodd" fill="#0B008A" d="M54.439,9.728c0,0,0.11-0.199,0.057-0.418
				c0,0-0.106,0.049-0.073,0.354L54.439,9.728z"/>
			<path fill-rule="evenodd" clip-rule="evenodd" fill="#0B008A" d="M54.975,9.106c0,0-0.191,0.169-0.405,0.034
				c0,0,0.111-0.182,0.354-0.051L54.975,9.106z"/>
			<path fill-rule="evenodd" clip-rule="evenodd" fill="#0B008A" d="M54.45,8.979c0,0,0.134,0.087,0.323-0.163
				c0,0-0.206-0.053-0.306,0.12L54.45,8.979z"/>
			<path fill-rule="evenodd" clip-rule="evenodd" fill="#0B008A" d="M54.196,9.519c0,0,0.175-0.07,0.18-0.331
				c0,0-0.191,0.023-0.183,0.282L54.196,9.519z"/>
			<path fill-rule="evenodd" clip-rule="evenodd" fill="#0B008A" d="M54.063,9.312c0,0,0.191-0.047,0.204-0.234
				c0,0-0.172,0.023-0.198,0.19L54.063,9.312z"/>
			<path fill-rule="evenodd" clip-rule="evenodd" fill="#0B008A" d="M52.365,9.749c0,0,0.055-0.351-0.177-0.535
				c0,0-0.111,0.151,0.137,0.495L52.365,9.749z"/>
			<path fill-rule="evenodd" clip-rule="evenodd" fill="#0B008A" d="M51.9,9.64c0,0,0.161-0.16,0.171-0.386
				c0,0-0.116,0.018-0.169,0.32L51.9,9.64z"/>
			<path fill-rule="evenodd" clip-rule="evenodd" fill="#0B008A" d="M52.588,9.191c0,0-0.231,0.109-0.399-0.079
				c0,0,0.157-0.144,0.354,0.049L52.588,9.191z"/>
			<path fill-rule="evenodd" clip-rule="evenodd" fill="#0B008A" d="M52.119,8.924c0,0,0.104,0.121,0.355-0.067
				c0,0-0.184-0.106-0.327,0.032L52.119,8.924z"/>
			<path fill-rule="evenodd" clip-rule="evenodd" fill="#0B008A" d="M51.725,9.371c0,0,0.188-0.019,0.266-0.269
				c0,0-0.191-0.03-0.254,0.221L51.725,9.371z"/>
			<path fill-rule="evenodd" clip-rule="evenodd" fill="#0B008A" d="M51.653,9.135c0,0,0.197,0.008,0.262-0.168
				c0,0-0.172-0.025-0.243,0.128L51.653,9.135z"/>
			<path fill-rule="evenodd" clip-rule="evenodd" fill="#0B008A" d="M48.756,9.044c0,0,0.055-0.351-0.177-0.535
				c0,0-0.112,0.15,0.137,0.495L48.756,9.044z"/>
			<path fill-rule="evenodd" clip-rule="evenodd" fill="#0B008A" d="M48.291,8.935c0,0,0.161-0.16,0.17-0.386
				c0,0-0.115,0.018-0.169,0.319L48.291,8.935z"/>
			<path fill-rule="evenodd" clip-rule="evenodd" fill="#0B008A" d="M48.979,8.486c0,0-0.232,0.109-0.399-0.079
				c0,0,0.157-0.144,0.354,0.049L48.979,8.486z"/>
			<path fill-rule="evenodd" clip-rule="evenodd" fill="#0B008A" d="M48.51,8.219c0,0,0.104,0.121,0.354-0.067
				c0,0-0.183-0.106-0.326,0.031L48.51,8.219z"/>
			<path fill-rule="evenodd" clip-rule="evenodd" fill="#0B008A" d="M48.115,8.666c0,0,0.188-0.019,0.265-0.269
				c0,0-0.19-0.03-0.253,0.221L48.115,8.666z"/>
			<path fill-rule="evenodd" clip-rule="evenodd" fill="#0B008A" d="M48.044,8.43c0,0,0.197,0.008,0.262-0.168
				c0,0-0.172-0.025-0.243,0.129L48.044,8.43z"/>
			<path fill-rule="evenodd" clip-rule="evenodd" fill="#0B008A" d="M45.142,10.393c0,0,0.021-0.354-0.228-0.516
				c0,0-0.097,0.161,0.184,0.48L45.142,10.393z"/>
			<path fill-rule="evenodd" clip-rule="evenodd" fill="#0B008A" d="M44.669,10.328c0,0,0.145-0.175,0.133-0.4
				c0,0-0.114,0.028-0.138,0.335L44.669,10.328z"/>
			<path fill-rule="evenodd" clip-rule="evenodd" fill="#0B008A" d="M45.31,9.816c0,0-0.22,0.131-0.404-0.04
				c0,0,0.143-0.158,0.356,0.014L45.31,9.816z"/>
			<path fill-rule="evenodd" clip-rule="evenodd" fill="#0B008A" d="M44.817,9.595c0,0,0.115,0.11,0.348-0.101
				c0,0-0.192-0.089-0.322,0.063L44.817,9.595z"/>
			<path fill-rule="evenodd" clip-rule="evenodd" fill="#0B008A" d="M44.468,10.078c0,0,0.186-0.037,0.238-0.293
				c0,0-0.192-0.012-0.231,0.244L44.468,10.078z"/>
			<path fill-rule="evenodd" clip-rule="evenodd" fill="#0B008A" d="M44.375,9.85c0,0,0.196-0.011,0.243-0.192
				c0,0-0.173-0.009-0.229,0.151L44.375,9.85z"/>
			<path fill-rule="evenodd" clip-rule="evenodd" fill="#0B008A" d="M45.324,7.502c0,0-0.319-0.155-0.563,0.011
				c0,0,0.11,0.151,0.514,0.016L45.324,7.502z"/>
			<path fill-rule="evenodd" clip-rule="evenodd" fill="#0B008A" d="M45.082,7.914c0,0-0.105-0.201-0.318-0.277
				c0,0-0.018,0.116,0.256,0.256L45.082,7.914z"/>
			<path fill-rule="evenodd" clip-rule="evenodd" fill="#0B008A" d="M44.856,7.125c0,0,0.036,0.254-0.192,0.358
				c0,0-0.092-0.193,0.15-0.324L44.856,7.125z"/>
			<path fill-rule="evenodd" clip-rule="evenodd" fill="#0B008A" d="M44.463,7.493c0,0,0.146-0.063,0.041-0.358
				c0,0-0.156,0.143-0.066,0.321L44.463,7.493z"/>
			<path fill-rule="evenodd" clip-rule="evenodd" fill="#0B008A" d="M44.773,8.003c0,0,0.038-0.186-0.178-0.333
				c0,0-0.086,0.173,0.136,0.308L44.773,8.003z"/>
			<path fill-rule="evenodd" clip-rule="evenodd" fill="#0B008A" d="M44.527,8c0,0,0.065-0.186-0.084-0.299
				c0,0-0.074,0.156,0.051,0.27L44.527,8z"/>
			<path fill-rule="evenodd" clip-rule="evenodd" fill="#0B008A" d="M46.491,7.799c0,0-0.354,0.034-0.475,0.304
				c0,0,0.174,0.071,0.446-0.255L46.491,7.799z"/>
			<path fill-rule="evenodd" clip-rule="evenodd" fill="#0B008A" d="M46.5,8.276c0,0-0.195-0.116-0.416-0.07
				c0,0,0.045,0.108,0.352,0.085L46.5,8.276z"/>
			<path fill-rule="evenodd" clip-rule="evenodd" fill="#0B008A" d="M45.896,7.721c0,0,0.163,0.197,0.022,0.406
				c0,0-0.179-0.116-0.041-0.354L45.896,7.721z"/>
			<path fill-rule="evenodd" clip-rule="evenodd" fill="#0B008A" d="M45.753,8.241c0,0,0.091-0.131-0.153-0.328
				c0,0-0.059,0.203,0.111,0.309L45.753,8.241z"/>
			<path fill-rule="evenodd" clip-rule="evenodd" fill="#0B008A" d="M46.283,8.513c0,0-0.064-0.177-0.325-0.19
				c0,0,0.018,0.192,0.276,0.191L46.283,8.513z"/>
			<path fill-rule="evenodd" clip-rule="evenodd" fill="#0B008A" d="M46.071,8.64c0,0-0.04-0.192-0.227-0.212
				c0,0,0.018,0.173,0.184,0.204L46.071,8.64z"/>
			<path fill-rule="evenodd" clip-rule="evenodd" fill="#0B008A" d="M48.203,2.14c0,0-0.123,0.333,0.066,0.56
				c0,0,0.14-0.125-0.035-0.513L48.203,2.14z"/>
			<path fill-rule="evenodd" clip-rule="evenodd" fill="#0B008A" d="M48.637,2.34c0,0-0.19,0.125-0.244,0.344
				c0,0,0.117,0.007,0.229-0.279L48.637,2.34z"/>
			<path fill-rule="evenodd" clip-rule="evenodd" fill="#0B008A" d="M47.874,2.642c0,0,0.249-0.062,0.375,0.157
				c0,0-0.183,0.109-0.337-0.119L47.874,2.642z"/>
			<path fill-rule="evenodd" clip-rule="evenodd" fill="#0B008A" d="M48.279,2.997c0,0-0.078-0.139-0.361-0.005
				c0,0,0.157,0.141,0.326,0.034L48.279,2.997z"/>
			<path fill-rule="evenodd" clip-rule="evenodd" fill="#0B008A" d="M48.756,2.638c0,0-0.188-0.019-0.314,0.21
				c0,0,0.181,0.068,0.293-0.165L48.756,2.638z"/>
			<path fill-rule="evenodd" clip-rule="evenodd" fill="#0B008A" d="M48.777,2.884c0,0-0.191-0.048-0.29,0.112
				c0,0,0.163,0.059,0.264-0.077L48.777,2.884z"/>
			<path fill-rule="evenodd" clip-rule="evenodd" fill="#0B008A" d="M46.467,2.602c0,0-0.2,0.293-0.072,0.559
				c0,0,0.166-0.087,0.092-0.505L46.467,2.602z"/>
			<path fill-rule="evenodd" clip-rule="evenodd" fill="#0B008A" d="M46.838,2.901c0,0-0.214,0.075-0.32,0.274
				c0,0,0.112,0.034,0.291-0.216L46.838,2.901z"/>
			<path fill-rule="evenodd" clip-rule="evenodd" fill="#0B008A" d="M46.025,3.008c0,0,0.256,0.002,0.325,0.244
				c0,0-0.204,0.062-0.298-0.197L46.025,3.008z"/>
			<path fill-rule="evenodd" clip-rule="evenodd" fill="#0B008A" d="M46.332,3.452c0,0-0.042-0.153-0.35-0.094
				c0,0,0.118,0.176,0.308,0.113L46.332,3.452z"/>
			<path fill-rule="evenodd" clip-rule="evenodd" fill="#0B008A" d="M46.881,3.22c0,0-0.177-0.064-0.355,0.127
				c0,0,0.159,0.11,0.324-0.089L46.881,3.22z"/>
			<path fill-rule="evenodd" clip-rule="evenodd" fill="#0B008A" d="M46.843,3.464c0,0-0.175-0.093-0.309,0.038
				c0,0,0.144,0.097,0.274-0.011L46.843,3.464z"/>
			<path fill-rule="evenodd" clip-rule="evenodd" fill="#0B008A" d="M44.952,2.911c0,0-0.105,0.339,0.096,0.556
				c0,0,0.133-0.133-0.062-0.511L44.952,2.911z"/>
			<path fill-rule="evenodd" clip-rule="evenodd" fill="#0B008A" d="M45.396,3.088c0,0-0.184,0.135-0.226,0.356
				c0,0,0.117,0,0.215-0.291L45.396,3.088z"/>
			<path fill-rule="evenodd" clip-rule="evenodd" fill="#0B008A" d="M44.649,3.43c0,0,0.246-0.074,0.384,0.137
				c0,0-0.177,0.12-0.343-0.1L44.649,3.43z"/>
			<path fill-rule="evenodd" clip-rule="evenodd" fill="#0B008A" d="M45.074,3.764c0,0-0.085-0.135-0.361,0.014
				c0,0,0.165,0.133,0.327,0.018L45.074,3.764z"/>
			<path fill-rule="evenodd" clip-rule="evenodd" fill="#0B008A" d="M45.53,3.379c0,0-0.188-0.009-0.302,0.227
				c0,0,0.184,0.059,0.283-0.181L45.53,3.379z"/>
			<path fill-rule="evenodd" clip-rule="evenodd" fill="#0B008A" d="M45.565,3.623c0,0-0.193-0.037-0.283,0.128
				c0,0,0.166,0.051,0.259-0.091L45.565,3.623z"/>
			<path fill-rule="evenodd" clip-rule="evenodd" fill="#0B008A" d="M46.522,4.387c0,0-0.279,0.22-0.236,0.513
				c0,0,0.186-0.034,0.238-0.456L46.522,4.387z"/>
			<path fill-rule="evenodd" clip-rule="evenodd" fill="#0B008A" d="M46.787,4.784c0,0-0.227,0.007-0.388,0.166
				c0,0,0.097,0.066,0.342-0.119L46.787,4.784z"/>
			<path fill-rule="evenodd" clip-rule="evenodd" fill="#0B008A" d="M45.979,4.644c0,0,0.244,0.077,0.238,0.33
				c0,0-0.214-0.002-0.227-0.277L45.979,4.644z"/>
			<path fill-rule="evenodd" clip-rule="evenodd" fill="#0B008A" d="M46.14,5.158c0,0,0.007-0.159-0.306-0.193
				c0,0,0.061,0.203,0.26,0.2L46.14,5.158z"/>
			<path fill-rule="evenodd" clip-rule="evenodd" fill="#0B008A" d="M46.733,5.101c0,0-0.15-0.114-0.377,0.016
				c0,0,0.118,0.152,0.336,0.012L46.733,5.101z"/>
			<path fill-rule="evenodd" clip-rule="evenodd" fill="#0B008A" d="M46.623,5.321c0,0-0.138-0.14-0.305-0.055
				c0,0,0.107,0.135,0.265,0.071L46.623,5.321z"/>
			<path fill-rule="evenodd" clip-rule="evenodd" fill="#0B008A" d="M50.372,4.743c0,0-0.338,0.107-0.4,0.396
				c0,0,0.185,0.033,0.383-0.343L50.372,4.743z"/>
			<path fill-rule="evenodd" clip-rule="evenodd" fill="#0B008A" d="M50.48,5.208c0,0-0.215-0.073-0.421,0.02
				c0,0,0.066,0.096,0.361,0.009L50.48,5.208z"/>
			<path fill-rule="evenodd" clip-rule="evenodd" fill="#0B008A" d="M49.773,4.792c0,0,0.201,0.159,0.107,0.393
				c0,0-0.199-0.076-0.114-0.339L49.773,4.792z"/>
			<path fill-rule="evenodd" clip-rule="evenodd" fill="#0B008A" d="M49.742,5.331c0,0,0.063-0.146-0.218-0.289
				c0,0-0.015,0.212,0.173,0.279L49.742,5.331z"/>
			<path fill-rule="evenodd" clip-rule="evenodd" fill="#0B008A" d="M50.319,5.485c0,0-0.102-0.16-0.359-0.118
				c0,0,0.058,0.185,0.311,0.129L50.319,5.485z"/>
			<path fill-rule="evenodd" clip-rule="evenodd" fill="#0B008A" d="M50.139,5.653c0,0-0.08-0.18-0.267-0.159
				c0,0,0.054,0.165,0.223,0.161L50.139,5.653z"/>
			<path fill-rule="evenodd" clip-rule="evenodd" fill="#0B008A" d="M51.093,4.759c0,0,0.126,0.333,0.418,0.379
				c0,0,0.023-0.187-0.362-0.363L51.093,4.759z"/>
			<path fill-rule="evenodd" clip-rule="evenodd" fill="#0B008A" d="M51.552,4.625c0,0-0.062,0.219,0.042,0.42
				c0,0,0.092-0.072-0.011-0.361L51.552,4.625z"/>
			<path fill-rule="evenodd" clip-rule="evenodd" fill="#0B008A" d="M51.175,5.354c0,0,0.147-0.209,0.386-0.128
				c0,0-0.065,0.203-0.332,0.133L51.175,5.354z"/>
			<path fill-rule="evenodd" clip-rule="evenodd" fill="#0B008A" d="M51.714,5.355c0,0-0.149-0.054-0.275,0.233
				c0,0,0.212,0.003,0.269-0.188L51.714,5.355z"/>
			<path fill-rule="evenodd" clip-rule="evenodd" fill="#0B008A" d="M51.837,4.771c0,0-0.154,0.109-0.099,0.365
				c0,0,0.182-0.068,0.112-0.317L51.837,4.771z"/>
			<path fill-rule="evenodd" clip-rule="evenodd" fill="#0B008A" d="M52.016,4.942c0,0-0.176,0.091-0.145,0.275
				c0,0,0.161-0.063,0.147-0.231L52.016,4.942z"/>
			<path fill-rule="evenodd" clip-rule="evenodd" fill="#0B008A" d="M47.437,3.373c0,0-0.293,0.076-0.359,0.319
				c0,0,0.155,0.036,0.342-0.274L47.437,3.373z"/>
			<path fill-rule="evenodd" clip-rule="evenodd" fill="#0B008A" d="M47.507,3.773c0,0-0.18-0.071-0.359-0.003
				c0,0,0.053,0.085,0.308,0.024L47.507,3.773z"/>
			<path fill-rule="evenodd" clip-rule="evenodd" fill="#0B008A" d="M46.925,3.387c0,0,0.164,0.145,0.072,0.34
				c0,0-0.165-0.075-0.081-0.294L46.925,3.387z"/>
			<path fill-rule="evenodd" clip-rule="evenodd" fill="#0B008A" d="M46.873,3.844c0,0,0.06-0.121-0.172-0.255
				c0,0-0.022,0.179,0.134,0.245L46.873,3.844z"/>
			<path fill-rule="evenodd" clip-rule="evenodd" fill="#0B008A" d="M47.356,4.002c0,0-0.078-0.141-0.3-0.117
				c0,0,0.041,0.16,0.259,0.125L47.356,4.002z"/>
			<path fill-rule="evenodd" clip-rule="evenodd" fill="#0B008A" d="M47.195,4.138c0,0-0.061-0.157-0.22-0.148
				c0,0,0.038,0.143,0.183,0.147L47.195,4.138z"/>
			<path fill-rule="evenodd" clip-rule="evenodd" fill="#0B008A" d="M50.178,3.791c0,0-0.293,0.076-0.359,0.319
				c0,0,0.156,0.037,0.342-0.274L50.178,3.791z"/>
			<path fill-rule="evenodd" clip-rule="evenodd" fill="#0B008A" d="M50.249,4.192c0,0-0.18-0.072-0.359-0.004
				c0,0,0.052,0.085,0.307,0.025L50.249,4.192z"/>
			<path fill-rule="evenodd" clip-rule="evenodd" fill="#0B008A" d="M49.666,3.806c0,0,0.164,0.145,0.073,0.339
				c0,0-0.166-0.074-0.081-0.294L49.666,3.806z"/>
			<path fill-rule="evenodd" clip-rule="evenodd" fill="#0B008A" d="M49.614,4.263c0,0,0.06-0.122-0.172-0.256
				c0,0-0.022,0.18,0.135,0.245L49.614,4.263z"/>
			<path fill-rule="evenodd" clip-rule="evenodd" fill="#0B008A" d="M50.099,4.421c0,0-0.079-0.141-0.301-0.117
				c0,0,0.041,0.159,0.259,0.124L50.099,4.421z"/>
			<path fill-rule="evenodd" clip-rule="evenodd" fill="#0B008A" d="M49.937,4.556c0,0-0.06-0.157-0.22-0.147
				c0,0,0.038,0.143,0.183,0.146L49.937,4.556z"/>
			<path fill-rule="evenodd" clip-rule="evenodd" fill="#0B008A" d="M51.235,5.725c0,0-0.222,0.059-0.271,0.242
				c0,0,0.117,0.027,0.258-0.208L51.235,5.725z"/>
			<path fill-rule="evenodd" clip-rule="evenodd" fill="#0B008A" d="M51.289,6.028c0,0-0.136-0.055-0.272-0.002
				c0,0,0.04,0.064,0.233,0.018L51.289,6.028z"/>
			<path fill-rule="evenodd" clip-rule="evenodd" fill="#0B008A" d="M50.848,5.736c0,0,0.124,0.109,0.056,0.257
				c0,0-0.126-0.057-0.062-0.223L50.848,5.736z"/>
			<path fill-rule="evenodd" clip-rule="evenodd" fill="#0B008A" d="M50.81,6.082c0,0,0.045-0.092-0.131-0.193
				c0,0-0.017,0.136,0.102,0.186L50.81,6.082z"/>
			<path fill-rule="evenodd" clip-rule="evenodd" fill="#0B008A" d="M51.176,6.201c0,0-0.06-0.106-0.228-0.088
				c0,0,0.031,0.12,0.196,0.094L51.176,6.201z"/>
			<path fill-rule="evenodd" clip-rule="evenodd" fill="#0B008A" d="M51.054,6.304c0,0-0.046-0.119-0.167-0.111
				c0,0,0.029,0.107,0.139,0.11L51.054,6.304z"/>
			<path fill-rule="evenodd" clip-rule="evenodd" fill="#0B008A" d="M40.529,3.222c0,0-0.105,0.34,0.097,0.556
				c0,0,0.133-0.133-0.063-0.51L40.529,3.222z"/>
			<path fill-rule="evenodd" clip-rule="evenodd" fill="#0B008A" d="M40.973,3.398c0,0-0.183,0.135-0.225,0.356
				c0,0,0.117,0,0.214-0.291L40.973,3.398z"/>
			<path fill-rule="evenodd" clip-rule="evenodd" fill="#0B008A" d="M40.228,3.74c0,0,0.245-0.073,0.383,0.137
				c0,0-0.176,0.12-0.343-0.1L40.228,3.74z"/>
			<path fill-rule="evenodd" clip-rule="evenodd" fill="#0B008A" d="M40.651,4.074c0,0-0.085-0.135-0.361,0.014
				c0,0,0.165,0.133,0.328,0.018L40.651,4.074z"/>
			<path fill-rule="evenodd" clip-rule="evenodd" fill="#0B008A" d="M41.107,3.689c0,0-0.188-0.009-0.302,0.227
				c0,0,0.185,0.059,0.284-0.181L41.107,3.689z"/>
			<path fill-rule="evenodd" clip-rule="evenodd" fill="#0B008A" d="M41.143,3.935c0,0-0.193-0.037-0.283,0.127
				c0,0,0.166,0.051,0.26-0.091L41.143,3.935z"/>
			<path fill-rule="evenodd" clip-rule="evenodd" fill="#0B008A" d="M37.236,4.603c0,0-0.098,0.286,0.069,0.475
				c0,0,0.115-0.11-0.042-0.436L37.236,4.603z"/>
			<path fill-rule="evenodd" clip-rule="evenodd" fill="#0B008A" d="M37.609,4.763c0,0-0.158,0.11-0.2,0.299
				c0,0,0.1,0.002,0.189-0.243L37.609,4.763z"/>
			<path fill-rule="evenodd" clip-rule="evenodd" fill="#0B008A" d="M36.967,5.037c0,0,0.211-0.058,0.323,0.125
				c0,0-0.153,0.098-0.289-0.093L36.967,5.037z"/>
			<path fill-rule="evenodd" clip-rule="evenodd" fill="#0B008A" d="M37.32,5.33c0,0-0.069-0.116-0.308,0.004
				c0,0,0.138,0.117,0.278,0.022L37.32,5.33z"/>
			<path fill-rule="evenodd" clip-rule="evenodd" fill="#0B008A" d="M37.718,5.014c0,0-0.161-0.012-0.263,0.187
				c0,0,0.155,0.054,0.245-0.147L37.718,5.014z"/>
			<path fill-rule="evenodd" clip-rule="evenodd" fill="#0B008A" d="M37.741,5.223c0,0-0.163-0.036-0.243,0.102
				c0,0,0.14,0.047,0.223-0.071L37.741,5.223z"/>
			<path fill-rule="evenodd" clip-rule="evenodd" fill="#0B008A" d="M37.34,8.975c0,0,0.347,0.075,0.544-0.145
				c0,0-0.144-0.121-0.502,0.107L37.34,8.975z"/>
			<path fill-rule="evenodd" clip-rule="evenodd" fill="#0B008A" d="M37.477,8.518c0,0,0.15,0.17,0.375,0.192
				c0,0-0.011-0.116-0.31-0.188L37.477,8.518z"/>
			<path fill-rule="evenodd" clip-rule="evenodd" fill="#0B008A" d="M37.883,9.229c0,0-0.095-0.237,0.103-0.394
				c0,0,0.135,0.165-0.069,0.351L37.883,9.229z"/>
			<path fill-rule="evenodd" clip-rule="evenodd" fill="#0B008A" d="M38.178,8.777c0,0-0.126,0.097,0.046,0.359
				c0,0,0.118-0.177-0.012-0.328L38.178,8.777z"/>
			<path fill-rule="evenodd" clip-rule="evenodd" fill="#0B008A" d="M37.755,8.357c0,0,0.008,0.188,0.252,0.28
				c0,0,0.042-0.188-0.205-0.267L37.755,8.357z"/>
			<path fill-rule="evenodd" clip-rule="evenodd" fill="#0B008A" d="M37.995,8.301c0,0-0.021,0.196,0.152,0.271
				c0,0,0.035-0.17-0.114-0.25L37.995,8.301z"/>
			<path fill-rule="evenodd" clip-rule="evenodd" fill="#0B008A" d="M39.474,2.718c0,0-0.286,0.211-0.252,0.505
				c0,0,0.186-0.028,0.252-0.448V2.718z"/>
			<path fill-rule="evenodd" clip-rule="evenodd" fill="#0B008A" d="M39.726,3.123c0,0-0.228,0.001-0.393,0.154
				c0,0,0.095,0.069,0.346-0.108L39.726,3.123z"/>
			<path fill-rule="evenodd" clip-rule="evenodd" fill="#0B008A" d="M38.923,2.957c0,0,0.241,0.086,0.228,0.338
				c0,0-0.213-0.009-0.217-0.284L38.923,2.957z"/>
			<path fill-rule="evenodd" clip-rule="evenodd" fill="#0B008A" d="M39.066,3.478c0,0,0.012-0.159-0.3-0.203
				c0,0,0.055,0.205,0.254,0.208L39.066,3.478z"/>
			<path fill-rule="evenodd" clip-rule="evenodd" fill="#0B008A" d="M39.662,3.438c0,0-0.147-0.118-0.378,0.004
				c0,0,0.114,0.156,0.336,0.022L39.662,3.438z"/>
			<path fill-rule="evenodd" clip-rule="evenodd" fill="#0B008A" d="M39.545,3.655c0,0-0.134-0.145-0.304-0.064
				c0,0,0.104,0.139,0.263,0.08L39.545,3.655z"/>
			<path fill-rule="evenodd" clip-rule="evenodd" fill="#0B008A" d="M42.892,4.081c0,0-0.286,0.211-0.251,0.504
				c0,0,0.185-0.028,0.251-0.447V4.081z"/>
			<path fill-rule="evenodd" clip-rule="evenodd" fill="#0B008A" d="M43.145,4.486c0,0-0.228,0-0.393,0.153
				c0,0,0.094,0.069,0.345-0.107L43.145,4.486z"/>
			<path fill-rule="evenodd" clip-rule="evenodd" fill="#0B008A" d="M42.341,4.319c0,0,0.241,0.086,0.228,0.338
				c0,0-0.213-0.009-0.217-0.284L42.341,4.319z"/>
			<path fill-rule="evenodd" clip-rule="evenodd" fill="#0B008A" d="M42.484,4.84c0,0,0.012-0.159-0.299-0.203
				c0,0,0.055,0.205,0.254,0.208L42.484,4.84z"/>
			<path fill-rule="evenodd" clip-rule="evenodd" fill="#0B008A" d="M43.08,4.801c0,0-0.146-0.119-0.378,0.003
				c0,0,0.114,0.156,0.336,0.022L43.08,4.801z"/>
			<path fill-rule="evenodd" clip-rule="evenodd" fill="#0B008A" d="M42.964,5.018c0,0-0.134-0.145-0.304-0.064
				c0,0,0.104,0.139,0.263,0.08L42.964,5.018z"/>
			<path fill-rule="evenodd" clip-rule="evenodd" fill="#0B008A" d="M37.559,2.511c0,0,0.117,0.233,0.334,0.246
				c0,0,0.003-0.139-0.292-0.239L37.559,2.511z"/>
			<path fill-rule="evenodd" clip-rule="evenodd" fill="#0B008A" d="M37.884,2.379c0,0-0.028,0.164,0.063,0.304
				c0,0,0.063-0.06-0.035-0.264L37.884,2.379z"/>
			<path fill-rule="evenodd" clip-rule="evenodd" fill="#0B008A" d="M37.663,2.939c0,0,0.092-0.164,0.272-0.122
				c0,0-0.032,0.153-0.232,0.121L37.663,2.939z"/>
			<path fill-rule="evenodd" clip-rule="evenodd" fill="#0B008A" d="M38.058,2.9c0,0-0.113-0.027-0.185,0.191
				c0,0,0.155-0.013,0.183-0.157L38.058,2.9z"/>
			<path fill-rule="evenodd" clip-rule="evenodd" fill="#0B008A" d="M38.104,2.465c0,0-0.105,0.091-0.045,0.273
				c0,0,0.127-0.063,0.058-0.24L38.104,2.465z"/>
			<path fill-rule="evenodd" clip-rule="evenodd" fill="#0B008A" d="M38.247,2.576c0,0-0.122,0.079-0.085,0.212
				c0,0,0.113-0.058,0.091-0.18L38.247,2.576z"/>
			<path fill-rule="evenodd" clip-rule="evenodd" fill="#0B008A" d="M38.925,1.177c0,0-0.215,0.255-0.119,0.516
				c0,0,0.164-0.066,0.132-0.465L38.925,1.177z"/>
			<path fill-rule="evenodd" clip-rule="evenodd" fill="#0B008A" d="M39.245,1.491c0,0-0.208,0.05-0.325,0.227
				c0,0,0.102,0.043,0.292-0.174L39.245,1.491z"/>
			<path fill-rule="evenodd" clip-rule="evenodd" fill="#0B008A" d="M38.474,1.517c0,0,0.24,0.024,0.283,0.258
				c0,0-0.197,0.039-0.261-0.212L38.474,1.517z"/>
			<path fill-rule="evenodd" clip-rule="evenodd" fill="#0B008A" d="M38.721,1.96c0,0-0.024-0.147-0.318-0.119
				c0,0,0.095,0.175,0.277,0.134L38.721,1.96z"/>
			<path fill-rule="evenodd" clip-rule="evenodd" fill="#0B008A" d="M39.256,1.793c0,0-0.16-0.076-0.345,0.086
				c0,0,0.139,0.118,0.313-0.054L39.256,1.793z"/>
			<path fill-rule="evenodd" clip-rule="evenodd" fill="#0B008A" d="M39.197,2.018c0,0-0.154-0.103-0.292,0.007
				c0,0,0.126,0.104,0.258,0.016L39.197,2.018z"/>
			<path fill-rule="evenodd" clip-rule="evenodd" fill="#0B008A" d="M40.219,5.859c0,0-0.132,0.226-0.023,0.414
				c0,0,0.117-0.073,0.041-0.376L40.219,5.859z"/>
			<path fill-rule="evenodd" clip-rule="evenodd" fill="#0B008A" d="M40.507,6.061c0,0-0.153,0.065-0.221,0.218
				c0,0,0.084,0.02,0.202-0.173L40.507,6.061z"/>
			<path fill-rule="evenodd" clip-rule="evenodd" fill="#0B008A" d="M39.916,6.181c0,0,0.188-0.012,0.252,0.162
				c0,0-0.146,0.056-0.229-0.129L39.916,6.181z"/>
			<path fill-rule="evenodd" clip-rule="evenodd" fill="#0B008A" d="M40.164,6.49c0,0-0.038-0.11-0.261-0.05
				c0,0,0.096,0.122,0.231,0.066L40.164,6.49z"/>
			<path fill-rule="evenodd" clip-rule="evenodd" fill="#0B008A" d="M40.556,6.292c0,0-0.135-0.038-0.255,0.111
				c0,0,0.122,0.072,0.233-0.082L40.556,6.292z"/>
			<path fill-rule="evenodd" clip-rule="evenodd" fill="#0B008A" d="M40.539,6.473c0,0-0.132-0.06-0.224,0.044
				c0,0,0.11,0.063,0.2-0.022L40.539,6.473z"/>
			<path fill-rule="evenodd" clip-rule="evenodd" fill="#0B008A" d="M40.001,4.452c0,0-0.186,0.221-0.103,0.446
				c0,0,0.141-0.058,0.113-0.401L40.001,4.452z"/>
			<path fill-rule="evenodd" clip-rule="evenodd" fill="#0B008A" d="M40.277,4.724c0,0-0.18,0.044-0.281,0.196
				c0,0,0.088,0.037,0.252-0.15L40.277,4.724z"/>
			<path fill-rule="evenodd" clip-rule="evenodd" fill="#0B008A" d="M39.611,4.745c0,0,0.207,0.022,0.244,0.224
				c0,0-0.17,0.033-0.225-0.183L39.611,4.745z"/>
			<path fill-rule="evenodd" clip-rule="evenodd" fill="#0B008A" d="M39.824,5.129c0,0-0.021-0.128-0.274-0.104
				c0,0,0.081,0.151,0.239,0.116L39.824,5.129z"/>
			<path fill-rule="evenodd" clip-rule="evenodd" fill="#0B008A" d="M40.286,4.984c0,0-0.139-0.066-0.297,0.074
				c0,0,0.119,0.102,0.27-0.046L40.286,4.984z"/>
			<path fill-rule="evenodd" clip-rule="evenodd" fill="#0B008A" d="M40.235,5.178c0,0-0.133-0.088-0.252,0.007
				c0,0,0.108,0.09,0.223,0.014L40.235,5.178z"/>
			<path fill-rule="evenodd" clip-rule="evenodd" fill="#0B008A" d="M43.305,5.588c0,0-0.237-0.093-0.402,0.04
				c0,0,0.088,0.102,0.368-0.018L43.305,5.588z"/>
			<path fill-rule="evenodd" clip-rule="evenodd" fill="#0B008A" d="M43.154,5.896c0,0-0.087-0.139-0.243-0.181
				c0,0-0.006,0.084,0.197,0.169L43.154,5.896z"/>
			<path fill-rule="evenodd" clip-rule="evenodd" fill="#0B008A" d="M42.949,5.345c0,0,0.04,0.18-0.118,0.267
				c0,0-0.076-0.133,0.09-0.24L42.949,5.345z"/>
			<path fill-rule="evenodd" clip-rule="evenodd" fill="#0B008A" d="M42.688,5.63c0,0,0.102-0.053,0.01-0.259
				c0,0-0.104,0.111-0.03,0.233L42.688,5.63z"/>
			<path fill-rule="evenodd" clip-rule="evenodd" fill="#0B008A" d="M42.938,5.978c0,0,0.017-0.135-0.146-0.229
				c0,0-0.052,0.129,0.114,0.213L42.938,5.978z"/>
			<path fill-rule="evenodd" clip-rule="evenodd" fill="#0B008A" d="M42.762,5.989c0,0,0.037-0.137-0.076-0.209
				c0,0-0.045,0.116,0.052,0.19L42.762,5.989z"/>
			<path fill-rule="evenodd" clip-rule="evenodd" fill="#0B008A" d="M50.599,8.161c0,0,0.252-0.099,0.427,0.042
				c0,0-0.093,0.108-0.391-0.019L50.599,8.161z"/>
			<path fill-rule="evenodd" clip-rule="evenodd" fill="#0B008A" d="M50.758,8.488c0,0,0.092-0.146,0.258-0.191
				c0,0,0.007,0.089-0.209,0.18L50.758,8.488z"/>
			<path fill-rule="evenodd" clip-rule="evenodd" fill="#0B008A" d="M50.976,7.902c0,0-0.042,0.19,0.126,0.284
				c0,0,0.08-0.142-0.096-0.255L50.976,7.902z"/>
			<path fill-rule="evenodd" clip-rule="evenodd" fill="#0B008A" d="M51.253,8.206c0,0-0.107-0.057-0.01-0.275
				c0,0,0.11,0.118,0.031,0.248L51.253,8.206z"/>
			<path fill-rule="evenodd" clip-rule="evenodd" fill="#0B008A" d="M50.986,8.574c0,0-0.017-0.143,0.155-0.242
				c0,0,0.055,0.137-0.121,0.226L50.986,8.574z"/>
			<path fill-rule="evenodd" clip-rule="evenodd" fill="#0B008A" d="M51.174,8.587c0,0-0.039-0.145,0.081-0.223
				c0,0,0.048,0.124-0.055,0.202L51.174,8.587z"/>
		</g>
		<g>
			<path fill-rule="evenodd" clip-rule="evenodd" fill="#0B008A" d="M38.785,1.931c0,0-0.239,0.561-0.314,1.455l-0.067-0.048
				c0,0,0.061-0.465-0.301-0.431c0,0,0.218,0.027,0.239,0.219c0,0-0.008,0.314,0.136,0.355c0,0-0.109,1.052,0.068,1.305
				c0,0,0.089,0.204,0.116,0.689c0,0,0.041,1.182,0.561,1.803c0,0,0.45,0.725,0.45,0.882c0,0-0.144-0.116-0.519-0.465
				c0,0-0.13-0.123-0.246-0.178c0,0-0.239-0.157-0.273-0.457c0,0,0-0.212-0.103-0.41l-0.007-0.096c0,0-0.007-0.157-0.17-0.314
				c0,0,0.074,0.082,0.129,0.246l-0.007,0.075l0.014,0.123l0.055,0.144c0,0-0.15-0.219-0.32-0.355l-0.458-0.355
				c0,0-0.137-0.272-0.034-0.409l0.055-0.089l0.014-0.109l-0.027-0.246l-0.027,0.26c0,0-0.027,0.103-0.055,0.15
				c0,0-0.096,0.178-0.041,0.342c0,0-0.096-0.226-0.178-0.52l-0.041-0.164c0,0,0,0.28,0.068,0.458l0.068,0.185
				c0,0,0.014,0.163,0.308,0.307l0.328,0.253c0,0,0.307,0.232,0.348,0.655c0,0,0.041,0.246,0.26,0.362l0.171,0.109l0.15,0.13
				l0.307,0.375l0.383,0.424c0,0,0.048,0.178,0.068,0.342l0.034,0.676c0,0-0.027,0.82,0.164,1.086l-0.021,0.089
				c0,0-0.232-0.314-0.267-0.635c0,0,0.055-0.403-0.137-0.492c0,0-0.252-0.089-0.293-0.417l0.033-0.149V8.993l-0.122-0.164
				c0,0,0.156,0.198,0.048,0.431l-0.034,0.055c0,0-0.123-0.342-0.287-0.451c0,0-0.171-0.253-0.833-0.212l-0.089,0.034
				c0,0,0.594-0.075,0.84,0.164c0,0,0.185,0.164,0.267,0.45c0,0,0.116,0.212,0.341,0.369l-0.375,0.212c0,0,0.423-0.26,0.512-0.137
				c0,0,0.055,0.116,0.048,0.362c0,0-0.007,0.313,0.219,0.642l0.137,0.308c0,0,0.089,0.465,0.068,0.826l-0.014,0.376
				c0,0-0.055,0.109-0.096,0.144c0,0-0.103,0.055-0.219,0.109l-0.28,0.054c0,0,0.383-0.026,0.465-0.054l0.096,0.014l0.089-0.034
				c0,0,0.096,0.055,0.267,0.074l0.259,0.069l-0.096-0.075l-0.184-0.075c0,0,0.021,0.021,0.259,0.041h0.226l-0.164-0.075
				l0.629,0.089l0.204,0.074c0,0-0.074-0.122-0.443-0.17l-0.13-0.082c0,0-0.191-0.041-0.198-0.383c0,0-0.048-0.396,0.103-0.737
				l0.239-0.506c0,0-0.171,0.232-0.28,0.431c0,0-0.062-0.328,0.021-0.724c0,0,0.171-0.499,0.287-0.602c0,0-0.239,0.219-0.383,0.792
				c0,0-0.089,0.438-0.055,0.916c0,0-0.04-0.949,0.055-1.599c0,0,0.082-0.97,0.451-1.277c0,0,0.205-0.171,0.431-0.171l0.327-0.43
				l-0.103,0.109l-0.252,0.211c0,0-0.39,0.034-0.588,0.321l0.178-0.614c0,0,0.13-0.321,0.205-0.451c0,0,0.088-0.191,0.116-0.375
				l0.067-0.008l-0.061-0.054c0,0,0.109-0.54,0.307-0.841l0.253-0.45c0,0,0.185-0.027,0.246-0.062c0,0,0.027-0.041,0.116-0.007
				l-0.017-0.026c0,0,0.102-0.102,0.269-0.117c0,0-0.071-0.018-0.245,0.061l-0.084,0.038c0,0-0.182,0.081-0.266,0.045
				c0,0,0.502-1.168,0.643-1.359c0,0-0.228,0.319-0.4,0.688l-0.068,0.131l-0.051-0.045l0.026,0.072l-0.229,0.531
				c0,0-0.129,0.284-0.188,0.344c0,0-0.104-0.065-0.042-0.248V5.911l-0.006-0.089l-0.018,0.14c0,0-0.061,0.152,0.026,0.299
				l-0.078,0.132c0,0-0.199,0.313-0.283,0.625c0,0-0.144,0.498-0.191,0.55c0,0-0.036-0.523-0.09-0.738c0,0-0.102-0.526-0.107-1.159
				L41.1,4.51c0,0,0.389-0.305,0.442-0.412c0,0-0.322,0.251-0.448,0.299c0,0,0.071-0.418,0.209-0.657c0,0,0.299-0.58,0.317-0.682
				c0,0-0.264,0.502-0.377,0.657c0,0-0.257,0.383-0.245,0.921l-0.006,0.717c0,0-0.191-0.06-0.186-0.197c0,0,0.03-0.155-0.06-0.221
				c0,0-0.042-0.149,0.06-0.442c0,0,0.03-0.347-0.012-0.574l-0.06-0.102c0,0,0.107,0.359,0.023,0.598l-0.054,0.191l-0.029,0.107
				c0,0-0.036,0.155,0.006,0.251l0.071,0.09c0,0-0.06,0.257,0.09,0.299l0.113,0.113l-0.012,0.622c0,0-0.281-0.107-0.46,0
				c0,0,0.28-0.09,0.437,0.096c0,0-0.013,0.723,0.107,0.998c0,0,0.054,0.813-0.162,1.165V7.869c0,0-0.012-0.251-0.155-0.413
				l-0.19-0.286c0,0-0.03-0.191,0.041-0.335c0,0-0.113,0.197-0.113,0.263c0,0-0.227-0.144-0.221-0.341l-0.036-0.483
				c0,0-0.018,0.4-0.012,0.567c0,0-0.012,0.107,0.161,0.245c0,0,0.212,0.176,0.353,0.448c0,0,0.164,0.2,0.099,0.636
				c0,0-0.045,0.183-0.051,0.464c0,0-0.036,0.221-0.113,0.395c0,0-0.293,1.034-0.293,1.571c0,0-0.063-0.313-0.078-0.66
				c0,0,0.015-0.911-0.14-1.393c0,0-0.033-0.116,0.002-0.266l0.013-0.191l0.054-0.054c0,0,0.113-0.275,0.06-0.358
				c0,0-0.126-0.06-0.161-0.222c0,0,0.012,0.138,0.113,0.245v0.113l-0.036,0.108l-0.042,0.06c0,0-0.041,0.042-0.035,0.138
				L40.06,8.275c0,0-0.023-0.013-0.077-0.233c0,0-0.311-0.64-0.454-0.783c0,0-0.048-0.478,0.042-0.818c0,0,0.221-0.036,0.573-0.813
				l0.096-0.162c0,0-0.078,0.114-0.18,0.275c0,0-0.299,0.567-0.478,0.604c0,0,0.4-1.063,0.364-1.56c0,0-0.048,0.418-0.233,0.866
				l-0.096,0.287c0,0-0.179-0.12-0.155-0.358c0,0,0.072-0.58,0.03-0.724c0,0,0.006,0.425-0.078,0.651c0,0-0.071,0.287,0.066,0.4
				l0.09,0.144c0,0-0.174,0.377-0.162,0.574l-0.006,0.483c0,0-0.341-0.454-0.448-0.896l-0.113-0.466l-0.054-0.49
				c0,0-0.006-0.353-0.155-0.502c0,0,0.012-0.28,0.089-0.43c0,0,0.039-0.109,0.092-0.201c0.113-0.196,0.291-0.463,0.291-0.463
				l0.03-0.19c0,0-0.042,0.155-0.114,0.238c0,0-0.358,0.448-0.448,0.831c0,0-0.125-0.526,0.013-1.536l0.035-0.209l0.072-0.036
				l-0.065-0.012c0,0,0.029-0.418,0.125-0.646L38.785,1.931z"/>
		</g>
	</g>
	<g>
		<g>
			<path fill-rule="evenodd" clip-rule="evenodd" fill="#0B008A" d="M143.789,2.236c0,0,0.061,0.464-0.637,1.064
				c0,0-0.208,0.231-0.294,0.672c0,0,0.086,0.258-0.635,0.624c0,0-0.209,0.257-0.209,0.686c0,0,0.146-1.419-0.293-1.896
				c0,0,0.183,0.429,0.207,0.991c0,0-0.121-0.502-0.636-0.612c0,0,0.623,0.257,0.611,0.832c0,0-0.049,1.42,0.11,1.713
				c0,0-0.196,0-0.27-0.367c0,0-0.159-0.66-0.696-0.868c0,0,0.55,0.428,0.647,0.942c0,0,0.099,0.318,0.403,0.452
				c0,0,0.258,0.771,0.576,0.979c0,0,0.208-0.012,0.023,1.431c0,0-0.184-0.868-0.978-0.844c0,0-0.38-0.049-0.441-0.759
				c0,0-0.11-0.379-0.294-0.489c0,0-0.146,0.098-0.256-0.501c0,0-0.073,0.402,0.342,0.685c0,0,0.187,0.271,0.179,0.521
				c0,0,0,0.425,0.367,0.551c0,0-0.14,0-0.565-0.073c0,0-0.455-0.162-0.697,0.146c0,0-0.31,0.529-0.47,0.228
				c0,0-0.022,0.168,0.228,0.184c0,0,0.146-0.103,0.213-0.198c0,0,0.168-0.455,0.778-0.221c0,0,0.352,0.037,0.807,0.052
				c0,0,0.463-0.11,0.654,0.845c0,0-0.153,1.292,0.484,1.806l0.257,0.396c0,0,0.125,0.46,0.029,0.593c0,0-0.13,0.252-0.145,0.34
				c0,0-0.171,0.044-0.362,0.184c0,0-0.278,0.229-0.499,0.234l-0.228,0.045l0.323,0.007l0.214-0.073c0,0,0.197-0.059,0.307-0.007
				c0,0,0.174,0.109,0.128,0.108l-0.169,0.251l0.445-0.271l0.19-0.022l0.169,0.073l0.059-0.16l0.097,0.015l0.234,0.124l-0.132-0.124
				c0,0,0.117-0.06,0.403,0.05l0.507,0.125c0,0-0.132-0.059-0.403-0.198l-0.214-0.095l-0.257-0.073c0,0-0.235-0.008-0.021-0.419
				c0,0-0.025-0.423-0.098-0.841l0.222-0.458l0.052-0.206c0,0,0.029-0.184,0.19-0.228c0,0,0.529-0.205,0.668-0.66l0.14-0.36
				c0,0,0.088-0.47,0.889-0.72l0.323-0.154c0,0,0.103-0.021,0.249,0.008c0,0,0.271,0.037,0.478-0.029c0,0,0.242-0.051,0.396,0.036
				c0,0-0.168-0.169-0.631-0.08c0,0-0.543,0.036-0.257-0.103c0,0,0.632-0.441,1.314-0.47c0,0-0.455-0.081-1.152,0.241l-0.528,0.266
				c0,0,0.22-0.272,0.418-0.383c0,0,0.161-0.08,0.242-0.205c0,0-0.059,0.096-0.265,0.168c0,0-0.095,0.045-0.19,0.133l-0.33,0.338
				l-0.345,0.213c0,0-0.595,0.374-0.486,0.036c0,0,0.243-1.027,0.215-1.356c0,0-0.118-0.684,0.286-1.176c0,0,0.109-0.22,0.711-0.366
				c0,0,0.404-0.148,0.587-0.588c0,0,0.178-0.521,0.955-0.418c0,0-0.529-0.154-0.777,0.08l-0.118,0.117c0,0-0.19,0.448-0.44,0.559
				c0,0-0.14,0.073-0.279,0.088c0,0-0.088,0-0.359,0.117c0,0,0.359-0.404,0.433-0.83c0,0,0.03-0.675,0.668-1.027
				c0,0,0.632-0.146,0.999-0.602l0.521-0.749c0,0-0.417,0.683-0.829,0.925c0,0-0.234,0.176-0.69,0.271c0,0-0.168,0.015,0.125-0.426
				c0,0,0.22-0.257,0.22-0.389c0,0-0.183,0.308-0.329,0.418c0,0-0.037,0.029-0.133,0.258c0,0-0.008,0.123-0.228,0.366
				c0,0-0.382,0.323-0.462,0.933c0,0-0.081,0.572-0.609,1.064c0,0-0.396,0.33-0.455,0.917l0.007,0.228c0,0,0.096,0.493-0.102,1.095
				l-0.17,0.697c0,0-0.308,0.896-0.559,1.05l-0.19,0.14c0,0-0.184,0.073-0.265,0.206c0,0-0.132,0.175-0.124-0.118
				c0,0-0.088-0.602-0.162-0.829c0,0-0.265-1.058,0.096-1.571c0,0,0.58-0.439,0.683-1.241l0.016-1.232l0.051-0.279
				c0,0-0.153,0.374-0.132,0.764c0,0,0.052,1.05-0.243,1.394c0,0-0.507,0.508-0.564,0.574c0,0-0.089,0.028,0.065-0.448
				c0,0,0.06-0.338,0.051-0.499c0,0-0.064,0.373-0.212,0.558c0,0-0.096-0.515-0.11-0.646l-0.008-0.573c0,0-0.08,0.749,0,1.101
				c0,0,0.097,0.559-0.051,0.367l-0.095-0.285c0,0,0.044,0.271,0.103,0.41l0.014,0.103c0,0-0.036,0.962,0.082,1.358l0.153,0.632
				c0,0,0.073,0.455,0.029,0.749c0,0-0.051,0.402-0.352,0.301c0,0-0.294-0.316-0.396-1.035l0.043-1.249c0,0,0.06-0.8-0.073-0.946
				c0,0-0.477-0.41-0.579-0.764c0,0-0.309-0.506-0.146-1.615l0.117-0.265l0.088-0.109c0,0,0.499-0.213,0.609-0.668
				c0,0,0.088-0.426,0.271-0.668c0,0,0.323-0.258,0.44-0.551c0,0,0.066-0.242,0.125-0.5L143.789,2.236z"/>
		</g>
		<path fill-rule="evenodd" clip-rule="evenodd" fill="#0B008A" d="M144.489,4.607c0,0-0.052-0.266,0.124-0.266
			c0,0,0.206,0.022,0.051,0.309c0,0,0.221-0.205,0.302-0.014c0,0,0.028,0.22-0.279,0.197c0,0,0.235,0.096,0.11,0.234
			c0,0-0.22,0.178-0.249-0.139c0,0-0.073,0.221-0.265,0.08c0,0-0.136-0.168,0.145-0.223c0,0-0.325-0.084-0.211-0.229
			c0,0,0.078-0.134,0.221,0.014L144.489,4.607z M144.553,4.686c0,0-0.078-0.189,0.024-0.207c0,0,0.193-0.004,0.013,0.204
			l0.033,0.043c0,0,0.166-0.119,0.227-0.056c0,0,0.077,0.126-0.171,0.086l-0.056-0.006l0.013,0.049l0.003,0.024
			c0,0,0.159,0.089,0.096,0.162c0,0-0.099,0.083-0.126-0.082L144.6,4.836l-0.034-0.016h-0.036c0,0-0.027,0.205-0.129,0.129
			c0,0-0.125-0.068,0.052-0.123l0.022-0.043c0,0-0.221-0.061-0.147-0.161c0,0,0.05-0.086,0.189,0.075l0.024,0.02L144.553,4.686z
			 M144.557,4.676c0.043,0,0.077,0.035,0.077,0.077S144.6,4.83,144.557,4.83c-0.042,0-0.076-0.035-0.076-0.077
			S144.515,4.676,144.557,4.676z M143.61,3.475c0,0,0.12-0.24,0.26-0.133c0,0,0.149,0.143-0.147,0.276c0,0,0.3-0.029,0.248,0.171
			c0,0-0.11,0.193-0.342-0.013c0,0,0.129,0.22-0.056,0.253c0,0-0.282,0.007-0.113-0.262c0,0-0.192,0.131-0.26-0.097
			c0,0-0.003-0.216,0.252-0.089c0,0-0.208-0.265-0.027-0.311c0,0,0.143-0.059,0.166,0.145L143.61,3.475z M143.613,3.578
			c0,0,0.052-0.199,0.146-0.15c0,0,0.154,0.114-0.115,0.17v0.055c0,0,0.204,0.006,0.214,0.094c0,0-0.016,0.146-0.188-0.036
			l-0.04-0.038l-0.021,0.046l-0.013,0.021c0,0,0.072,0.167-0.024,0.187c0,0-0.127,0.006-0.049-0.143l0.034-0.059l-0.018-0.033
			l-0.028-0.022c0,0-0.147,0.146-0.182,0.024c0,0-0.058-0.129,0.116-0.065l0.043-0.021c0,0-0.138-0.184-0.018-0.219
			c0,0,0.091-0.037,0.104,0.177l0.009,0.028L143.613,3.578z M143.622,3.572c0.033,0.025,0.039,0.074,0.014,0.107
			s-0.073,0.039-0.106,0.014c-0.034-0.025-0.041-0.073-0.015-0.107C143.541,3.553,143.588,3.547,143.622,3.572z M148.015,4.357
			c0,0,0.12-0.242,0.26-0.135c0,0,0.149,0.143-0.147,0.276c0,0,0.301-0.03,0.249,0.171c0,0-0.111,0.193-0.342-0.012
			c0,0,0.128,0.219-0.057,0.253c0,0-0.282,0.006-0.113-0.263c0,0-0.191,0.131-0.259-0.096c0,0-0.004-0.217,0.251-0.09
			c0,0-0.208-0.264-0.026-0.311c0,0,0.142-0.059,0.165,0.145L148.015,4.357z M148.019,4.458c0,0,0.052-0.198,0.146-0.149
			c0,0,0.155,0.114-0.115,0.17l0.001,0.055c0,0,0.203,0.006,0.213,0.094c0,0-0.016,0.146-0.188-0.037l-0.041-0.037l-0.02,0.045
			l-0.012,0.022c0,0,0.072,0.167-0.024,0.187c0,0-0.128,0.006-0.049-0.142l0.033-0.06l-0.017-0.033l-0.029-0.021
			c0,0-0.146,0.146-0.181,0.023c0,0-0.059-0.129,0.115-0.065l0.043-0.021c0,0-0.137-0.184-0.018-0.219c0,0,0.092-0.038,0.104,0.176
			l0.01,0.03L148.019,4.458z M148.026,4.453c0.034,0.025,0.04,0.074,0.014,0.107c-0.025,0.033-0.073,0.04-0.106,0.014
			c-0.033-0.025-0.04-0.073-0.014-0.106C147.945,4.434,147.992,4.428,148.026,4.453z M148.101,7.433c0,0,0.166-0.17,0.255-0.042
			c0,0,0.088,0.16-0.198,0.192c0,0,0.261,0.057,0.163,0.211c0,0-0.146,0.133-0.286-0.104c0,0,0.049,0.219-0.114,0.199
			c0,0-0.239-0.072-0.024-0.252c0,0-0.196,0.057-0.191-0.152c0,0,0.056-0.182,0.235-0.006c0,0-0.104-0.279,0.061-0.27
			c0,0,0.136-0.01,0.101,0.167V7.433z M148.077,7.52c0,0,0.097-0.153,0.162-0.087c0,0,0.099,0.139-0.143,0.111l-0.014,0.047
			c0,0,0.169,0.059,0.153,0.137c0,0-0.053,0.118-0.147-0.082l-0.024-0.043l-0.03,0.033l-0.015,0.016c0,0,0.015,0.16-0.071,0.149
			c0,0-0.108-0.03-0.002-0.132l0.045-0.041l-0.007-0.031l-0.019-0.027c0,0-0.163,0.083-0.158-0.028c0,0-0.015-0.126,0.115-0.024
			l0.041-0.006c0,0-0.064-0.19,0.045-0.188c0,0,0.087-0.008,0.04,0.176l-0.001,0.027L148.077,7.52z M148.084,7.518
			c0.021,0.03,0.015,0.073-0.017,0.094s-0.073,0.015-0.094-0.018c-0.021-0.03-0.014-0.073,0.018-0.094
			C148.021,7.479,148.063,7.487,148.084,7.518z M147.604,8.134c0,0,0.17-0.114,0.222,0.008c0,0,0.046,0.149-0.199,0.128
			c0,0,0.208,0.093,0.1,0.205c0,0-0.146,0.086-0.222-0.136c0,0,0.004,0.191-0.13,0.146c0,0-0.188-0.102,0.022-0.215
			c0,0-0.176,0.014-0.136-0.16c0,0,0.078-0.145,0.2,0.033c0,0-0.039-0.25,0.098-0.215c0,0,0.115,0.016,0.055,0.158L147.604,8.134z
			 M147.569,8.202c0,0,0.108-0.111,0.152-0.045c0,0,0.06,0.134-0.14,0.069l-0.021,0.036c0,0,0.133,0.079,0.106,0.142
			c0,0-0.064,0.091-0.11-0.094l-0.012-0.04l-0.03,0.022l-0.017,0.01c0,0-0.015,0.138-0.085,0.114c0,0-0.086-0.044,0.021-0.112
			l0.044-0.026V8.251l-0.011-0.025c0,0-0.151,0.041-0.127-0.053c0,0,0.009-0.107,0.101,0l0.036,0.003c0,0-0.022-0.171,0.069-0.15
			c0,0,0.073,0.009,0.002,0.155l-0.005,0.021H147.569z M147.576,8.201c0.014,0.03-0.001,0.063-0.029,0.076
			c-0.03,0.013-0.064-0.001-0.077-0.03s0.002-0.063,0.031-0.076S147.564,8.173,147.576,8.201z M147.077,7.36
			c0,0,0.277-0.025,0.259,0.155c0,0-0.044,0.21-0.322,0.022c0,0,0.188,0.247-0.016,0.311c0,0-0.23,0.008-0.176-0.307
			c0,0-0.122,0.23-0.253,0.089c0,0-0.159-0.245,0.17-0.243c0,0-0.221-0.098-0.057-0.28c0,0,0.188-0.121,0.216,0.173
			c0,0,0.117-0.327,0.258-0.193c0,0,0.128,0.094-0.038,0.225L147.077,7.36z M146.988,7.419c0,0,0.204-0.063,0.213,0.047
			c0,0-0.018,0.198-0.214-0.009l-0.047,0.03c0,0,0.105,0.183,0.033,0.238c0,0-0.137,0.066-0.07-0.185l0.013-0.056l-0.053,0.007
			l-0.024,0.001c0,0-0.108,0.154-0.177,0.081c0,0-0.075-0.109,0.098-0.121l0.07-0.003l0.019-0.032l0.004-0.038
			c0,0-0.208-0.049-0.119-0.145c0,0,0.082-0.123,0.121,0.065l0.042,0.026c0,0,0.085-0.221,0.182-0.135c0,0,0.083,0.061-0.098,0.188
			l-0.021,0.023L146.988,7.419z M146.998,7.423c-0.005,0.045-0.043,0.076-0.087,0.072c-0.043-0.005-0.075-0.043-0.07-0.088
			c0.004-0.043,0.043-0.074,0.087-0.07S147.002,7.38,146.998,7.423z M145.788,8.799c0,0,0.194-0.063,0.21,0.069
			c0,0,0.002,0.157-0.227,0.067c0,0,0.174,0.146,0.039,0.225c0,0-0.163,0.042-0.175-0.191c0,0-0.051,0.185-0.167,0.104
			c0,0-0.152-0.15,0.083-0.2c0,0-0.173-0.035-0.085-0.191c0,0,0.115-0.117,0.181,0.089c0,0,0.033-0.252,0.154-0.179
			c0,0,0.107,0.046,0.009,0.166L145.788,8.799z M145.735,8.854c0,0,0.135-0.076,0.159,0c0,0,0.019,0.145-0.154,0.027l-0.028,0.029
			c0,0,0.104,0.113,0.062,0.166c0,0-0.088,0.068-0.079-0.122l-0.001-0.041l-0.035,0.013l-0.02,0.005c0,0-0.051,0.128-0.112,0.086
			c0,0-0.071-0.066,0.052-0.103l0.048-0.012l0.01-0.026l-0.004-0.028c0,0-0.156-0.002-0.108-0.085c0,0,0.04-0.101,0.098,0.028
			l0.033,0.012c0,0,0.026-0.171,0.109-0.126c0,0,0.068,0.029-0.04,0.151l-0.013,0.02L145.735,8.854z M145.742,8.856
			c0.004,0.032-0.019,0.061-0.051,0.064c-0.031,0.004-0.061-0.019-0.064-0.051c-0.003-0.031,0.02-0.061,0.052-0.063
			C145.711,8.802,145.739,8.824,145.742,8.856z M146.081,4.823c0,0,0.229-0.073,0.247,0.083c0,0,0.004,0.186-0.268,0.079
			c0,0,0.207,0.174,0.046,0.267c0,0-0.193,0.049-0.206-0.228c0,0-0.061,0.22-0.197,0.122c0,0-0.18-0.176,0.097-0.236
			c0,0-0.203-0.041-0.1-0.226c0,0,0.137-0.139,0.214,0.104c0,0,0.04-0.298,0.182-0.212c0,0,0.127,0.055,0.012,0.196L146.081,4.823z
			 M146.018,4.89c0,0,0.16-0.091,0.188-0.001c0,0,0.023,0.172-0.18,0.033l-0.035,0.035c0,0,0.123,0.134,0.073,0.195
			c0,0-0.104,0.08-0.095-0.144v-0.05l-0.043,0.016l-0.021,0.006c0,0-0.063,0.15-0.134,0.102c0,0-0.084-0.078,0.061-0.12l0.059-0.016
			l0.01-0.031l-0.003-0.033c0,0-0.186-0.002-0.129-0.101c0,0,0.047-0.118,0.115,0.033l0.04,0.016c0,0,0.031-0.203,0.128-0.148
			c0,0,0.081,0.035-0.048,0.178l-0.014,0.022L146.018,4.89z M146.025,4.892c0.006,0.038-0.021,0.071-0.059,0.076
			c-0.038,0.005-0.071-0.022-0.076-0.06s0.021-0.071,0.06-0.076C145.987,4.828,146.021,4.854,146.025,4.892z M146.723,3.301
			c0,0,0.123-0.207,0.24-0.102c0,0,0.124,0.138-0.149,0.235c0,0,0.27-0.005,0.208,0.171c0,0-0.111,0.164-0.305-0.035
			c0,0,0.1,0.204-0.066,0.222c0,0-0.252-0.015-0.083-0.241c0,0-0.181,0.102-0.224-0.105c0,0,0.012-0.193,0.229-0.062
			c0,0-0.167-0.25-0.002-0.279c0,0,0.131-0.042,0.138,0.141L146.723,3.301z M146.717,3.392c0,0,0.062-0.175,0.141-0.124
			c0,0,0.131,0.113-0.113,0.144l-0.003,0.049c0,0,0.181,0.02,0.183,0.099c0,0-0.023,0.129-0.165-0.045l-0.032-0.037l-0.021,0.039
			l-0.013,0.019c0,0,0.052,0.155-0.035,0.165c0,0-0.113-0.004-0.032-0.131l0.033-0.051l-0.013-0.029l-0.024-0.021
			c0,0-0.142,0.119-0.163,0.008c0,0-0.043-0.119,0.108-0.051l0.04-0.015c0,0-0.11-0.173-0.001-0.196c0,0,0.084-0.027,0.08,0.164
			l0.005,0.027L146.717,3.392z M146.726,3.389c0.028,0.023,0.03,0.066,0.005,0.096c-0.024,0.027-0.068,0.03-0.097,0.005
			s-0.03-0.069-0.005-0.097C146.654,3.364,146.697,3.361,146.726,3.389z M148.55,2.449c0,0,0.124-0.207,0.241-0.102
			c0,0,0.124,0.138-0.15,0.236c0,0,0.269-0.006,0.21,0.17c0,0-0.114,0.164-0.305-0.035c0,0,0.099,0.203-0.067,0.222
			c0,0-0.253-0.015-0.083-0.241c0,0-0.181,0.102-0.225-0.105c0,0,0.012-0.193,0.231-0.062c0,0-0.168-0.25-0.004-0.278
			c0,0,0.133-0.043,0.139,0.141L148.55,2.449z M148.546,2.541c0,0,0.062-0.176,0.141-0.125c0,0,0.13,0.113-0.114,0.144l-0.004,0.048
			c0,0,0.182,0.021,0.184,0.1c0,0-0.024,0.129-0.165-0.045l-0.033-0.037l-0.021,0.039l-0.012,0.019c0,0,0.052,0.154-0.035,0.165
			c0,0-0.114-0.004-0.034-0.13l0.034-0.051l-0.013-0.03l-0.024-0.022c0,0-0.142,0.12-0.162,0.009c0,0-0.044-0.119,0.107-0.051
			l0.04-0.016c0,0-0.11-0.172,0-0.194c0,0,0.083-0.028,0.08,0.164l0.005,0.026L148.546,2.541z M148.553,2.536
			c0.028,0.025,0.031,0.068,0.006,0.097c-0.025,0.027-0.068,0.03-0.097,0.005c-0.027-0.025-0.03-0.068-0.005-0.097
			C148.482,2.514,148.525,2.511,148.553,2.536z M147.846,3.58c0,0,0.201-0.055,0.211,0.081c0,0-0.006,0.161-0.236,0.058
			c0,0,0.171,0.158,0.028,0.232c0,0-0.169,0.035-0.169-0.205c0,0-0.062,0.188-0.176,0.099c0,0-0.148-0.161,0.095-0.201
			c0,0-0.175-0.045-0.077-0.2c0,0,0.123-0.114,0.182,0.1c0,0,0.045-0.257,0.165-0.176c0,0,0.107,0.053,0.002,0.171L147.846,3.58z
			 M147.787,3.634c0,0,0.143-0.071,0.162,0.009c0,0,0.014,0.148-0.157,0.02l-0.031,0.029c0,0,0.101,0.121,0.056,0.172
			c0,0-0.094,0.065-0.076-0.129l0.002-0.041l-0.038,0.011l-0.019,0.005c0,0-0.06,0.127-0.12,0.082c0,0-0.069-0.072,0.058-0.102
			l0.052-0.012l0.009-0.026l-0.001-0.028c0,0-0.161-0.01-0.107-0.092c0,0,0.045-0.102,0.099,0.033l0.033,0.014
			c0,0,0.036-0.174,0.117-0.123c0,0,0.069,0.033-0.049,0.152l-0.013,0.019L147.787,3.634z M147.795,3.637
			c0.002,0.032-0.022,0.061-0.055,0.063c-0.033,0.003-0.062-0.021-0.063-0.055c-0.002-0.032,0.022-0.061,0.056-0.063
			C147.764,3.58,147.792,3.604,147.795,3.637z M147.595,2.719c0,0,0.107,0.179-0.021,0.225c0,0-0.156,0.039-0.119-0.211
			c0,0-0.106,0.208-0.216,0.091c0,0-0.08-0.153,0.15-0.218c0,0-0.196-0.008-0.143-0.143c0,0,0.114-0.188,0.22,0.035
			c0,0-0.005-0.18,0.171-0.128c0,0,0.144,0.086-0.046,0.201c0,0,0.259-0.026,0.214,0.111c0,0-0.021,0.118-0.164,0.048L147.595,2.719
			z M147.527,2.678c0,0,0.107,0.117,0.036,0.158c0,0-0.139,0.053-0.063-0.146l-0.036-0.021c0,0-0.09,0.131-0.15,0.1
			c0,0-0.089-0.07,0.103-0.107l0.042-0.01l-0.022-0.033L147.428,2.6c0,0-0.14-0.021-0.111-0.092c0,0,0.049-0.088,0.113,0.026
			l0.023,0.046l0.029,0.004l0.026-0.012c0,0-0.034-0.156,0.06-0.127c0,0,0.109,0.016-0.006,0.104l-0.003,0.037
			c0,0,0.176-0.015,0.149,0.078c0,0-0.014,0.076-0.159-0.005l-0.022-0.007V2.678z M147.527,2.686
			c-0.032,0.012-0.065-0.005-0.076-0.035c-0.012-0.031,0.005-0.065,0.035-0.076c0.03-0.012,0.064,0.004,0.075,0.035
			C147.573,2.641,147.558,2.675,147.527,2.686z M147.296,5.463c0,0,0.135,0.224-0.026,0.283c0,0-0.195,0.047-0.148-0.265
			c0,0-0.134,0.26-0.27,0.112c0,0-0.101-0.19,0.188-0.273c0,0-0.246-0.01-0.178-0.177c0,0,0.142-0.234,0.273,0.044
			c0,0-0.006-0.225,0.214-0.16c0,0,0.18,0.109-0.058,0.252c0,0,0.324-0.033,0.269,0.139c0,0-0.028,0.147-0.206,0.061L147.296,5.463z
			 M147.211,5.412c0,0,0.135,0.147,0.047,0.198c0,0-0.175,0.065-0.08-0.183L147.133,5.4c0,0-0.11,0.162-0.188,0.124
			c0,0-0.11-0.089,0.129-0.135l0.053-0.013l-0.027-0.041l-0.011-0.021c0,0-0.175-0.028-0.142-0.116c0,0,0.063-0.108,0.143,0.033
			l0.03,0.059l0.036,0.002l0.033-0.012c0,0-0.043-0.195,0.074-0.159c0,0,0.138,0.02-0.006,0.128l-0.006,0.047
			c0,0,0.222-0.017,0.188,0.1c0,0-0.017,0.094-0.197-0.008l-0.029-0.008L147.211,5.412z M147.211,5.422
			c-0.038,0.014-0.081-0.006-0.095-0.045c-0.015-0.038,0.006-0.08,0.043-0.095c0.039-0.015,0.082,0.006,0.097,0.045
			C147.269,5.365,147.249,5.408,147.211,5.422z M143.875,6.548c0,0,0.108,0.179-0.021,0.227c0,0-0.156,0.037-0.119-0.212
			c0,0-0.106,0.208-0.216,0.09c0,0-0.08-0.152,0.151-0.218c0,0-0.197-0.008-0.143-0.143c0,0,0.114-0.188,0.218,0.036
			c0,0-0.004-0.18,0.172-0.129c0,0,0.143,0.087-0.046,0.202c0,0,0.26-0.026,0.215,0.111c0,0-0.022,0.117-0.165,0.047L143.875,6.548z
			 M143.807,6.508c0,0,0.108,0.117,0.038,0.158c0,0-0.141,0.053-0.063-0.146l-0.035-0.022c0,0-0.09,0.131-0.151,0.1
			c0,0-0.089-0.07,0.103-0.107l0.042-0.01l-0.022-0.033l-0.008-0.018c0,0-0.141-0.021-0.113-0.092c0,0,0.05-0.086,0.113,0.027
			l0.025,0.046l0.027,0.003l0.027-0.01c0,0-0.033-0.158,0.06-0.128c0,0,0.109,0.017-0.005,0.103l-0.005,0.037
			c0,0,0.178-0.014,0.15,0.079c0,0-0.014,0.076-0.158-0.005l-0.023-0.008L143.807,6.508z M143.807,6.515
			c-0.031,0.012-0.064-0.004-0.076-0.035c-0.012-0.03,0.005-0.064,0.036-0.076c0.031-0.01,0.065,0.005,0.076,0.035
			C143.854,6.47,143.838,6.504,143.807,6.515z M142.779,6.574c0,0,0.142,0.235-0.026,0.296c0,0-0.206,0.051-0.157-0.275
			c0,0-0.141,0.271-0.283,0.117c0,0-0.104-0.201,0.198-0.287c0,0-0.258-0.01-0.187-0.188c0,0,0.149-0.244,0.288,0.048
			c0,0-0.007-0.236,0.225-0.169c0,0,0.188,0.115-0.062,0.265c0,0,0.341-0.034,0.281,0.146c0,0-0.028,0.155-0.215,0.063
			L142.779,6.574z M142.69,6.521c0,0,0.143,0.154,0.049,0.209c0,0-0.184,0.069-0.084-0.192l-0.046-0.029
			c0,0-0.116,0.171-0.197,0.132c0,0-0.117-0.095,0.134-0.143l0.055-0.013l-0.028-0.043l-0.012-0.022c0,0-0.184-0.029-0.147-0.122
			c0,0,0.065-0.113,0.149,0.036l0.032,0.061l0.037,0.003l0.035-0.013c0,0-0.044-0.205,0.078-0.168c0,0,0.144,0.021-0.007,0.135
			l-0.006,0.049c0,0,0.232-0.018,0.197,0.104c0,0-0.017,0.099-0.208-0.007l-0.03-0.01L142.69,6.521z M142.69,6.531
			c-0.04,0.015-0.085-0.007-0.101-0.047c-0.015-0.04,0.007-0.085,0.048-0.099c0.04-0.016,0.085,0.006,0.099,0.045
			C142.752,6.472,142.73,6.517,142.69,6.531z M141.105,5.101c0,0,0.152,0.253-0.029,0.32c0,0-0.222,0.054-0.17-0.3
			c0,0-0.15,0.295-0.305,0.128c0,0-0.113-0.217,0.214-0.31c0,0-0.279-0.01-0.202-0.201c0,0,0.162-0.266,0.31,0.05
			c0,0-0.006-0.255,0.243-0.182c0,0,0.204,0.124-0.065,0.286c0,0,0.367-0.038,0.305,0.158c0,0-0.03,0.166-0.233,0.067L141.105,5.101
			z M141.008,5.043c0,0,0.154,0.167,0.055,0.225c0,0-0.2,0.075-0.091-0.207l-0.051-0.032c0,0-0.126,0.186-0.214,0.142
			c0,0-0.126-0.102,0.146-0.152l0.059-0.015l-0.03-0.046l-0.013-0.023c0,0-0.197-0.033-0.158-0.133c0,0,0.07-0.121,0.16,0.038
			l0.035,0.067l0.041,0.002l0.037-0.014c0,0-0.049-0.223,0.084-0.18c0,0,0.156,0.021-0.007,0.145l-0.006,0.053
			c0,0,0.251-0.02,0.212,0.113c0,0-0.018,0.105-0.225-0.009l-0.032-0.009L141.008,5.043z M141.008,5.055
			c-0.044,0.016-0.091-0.008-0.107-0.051c-0.016-0.044,0.007-0.092,0.051-0.107c0.044-0.017,0.092,0.006,0.108,0.05
			C141.075,4.99,141.052,5.038,141.008,5.055z M140.097,7.894c0,0,0.128,0.213-0.024,0.268c0,0-0.186,0.047-0.143-0.25
			c0,0-0.126,0.247-0.257,0.107c0,0-0.094-0.183,0.181-0.26c0,0-0.233-0.01-0.169-0.168c0,0,0.135-0.223,0.26,0.041
			c0,0-0.006-0.214,0.204-0.152c0,0,0.169,0.104-0.056,0.24c0,0,0.309-0.032,0.255,0.131c0,0-0.025,0.141-0.195,0.058L140.097,7.894
			z M140.016,7.846c0,0,0.129,0.14,0.044,0.188c0,0-0.165,0.063-0.074-0.173l-0.043-0.027c0,0-0.106,0.156-0.179,0.119
			c0,0-0.106-0.084,0.121-0.129l0.05-0.012l-0.026-0.037l-0.01-0.021c0,0-0.166-0.027-0.133-0.111c0,0,0.059-0.102,0.135,0.033
			l0.028,0.055l0.034,0.004l0.032-0.012c0,0-0.04-0.187,0.07-0.152c0,0,0.13,0.02-0.007,0.123l-0.005,0.044
			c0,0,0.21-0.017,0.178,0.094c0,0-0.015,0.09-0.188-0.007l-0.027-0.008L140.016,7.846z M140.016,7.854
			c-0.037,0.014-0.077-0.006-0.09-0.043c-0.014-0.035,0.005-0.076,0.042-0.09c0.036-0.013,0.077,0.006,0.09,0.043
			C140.071,7.801,140.052,7.841,140.016,7.854z M139.902,8.706c0,0,0.149,0.239-0.023,0.305c0,0-0.208,0.055-0.164-0.282
			c0,0-0.139,0.283-0.289,0.127c0,0-0.111-0.205,0.199-0.298c0,0-0.266-0.006-0.195-0.188c0,0,0.149-0.255,0.296,0.043
			c0,0-0.011-0.241,0.228-0.177c0,0,0.194,0.114-0.058,0.272c0,0,0.349-0.04,0.292,0.146c0,0-0.027,0.159-0.222,0.067L139.902,8.706
			z M139.81,8.652c0,0,0.149,0.155,0.054,0.213c0,0-0.187,0.075-0.088-0.195l-0.048-0.03c0,0-0.118,0.179-0.201,0.139
			c0,0-0.122-0.094,0.135-0.146l0.056-0.015l-0.03-0.044l-0.012-0.023c0,0-0.188-0.027-0.152-0.122c0,0,0.064-0.117,0.152,0.034
			l0.035,0.062l0.038,0.003l0.036-0.014c0,0-0.05-0.21,0.077-0.174c0,0,0.147,0.019-0.004,0.14l-0.006,0.049
			c0,0,0.237-0.021,0.204,0.104c0,0-0.017,0.102-0.214-0.004l-0.031-0.01L139.81,8.652z M139.81,8.663
			c-0.04,0.016-0.087-0.005-0.103-0.045c-0.017-0.042,0.005-0.088,0.047-0.104c0.04-0.016,0.087,0.006,0.104,0.047
			C139.873,8.602,139.852,8.648,139.81,8.663z M140.776,8.481c0,0,0.248-0.003,0.219,0.157c0,0-0.055,0.183-0.289-0.005
			c0,0,0.149,0.233-0.037,0.274c0,0-0.205-0.011-0.132-0.286c0,0-0.127,0.196-0.232,0.06c0,0-0.122-0.229,0.169-0.203
			c0,0-0.187-0.103-0.027-0.252c0,0,0.175-0.094,0.178,0.169c0,0,0.13-0.281,0.243-0.151c0,0,0.108,0.093-0.049,0.197L140.776,8.481
			z M140.694,8.527c0,0,0.185-0.04,0.184,0.057c0,0-0.03,0.175-0.188-0.023l-0.044,0.022c0,0,0.08,0.17,0.011,0.215
			c0,0-0.126,0.048-0.049-0.169l0.016-0.05l-0.047,0.003l-0.022-0.002c0,0-0.108,0.13-0.163,0.06c0,0-0.059-0.104,0.097-0.101
			l0.062,0.003l0.021-0.027l0.005-0.033c0,0-0.18-0.06-0.094-0.139c0,0,0.082-0.102,0.103,0.068l0.035,0.026
			c0,0,0.092-0.188,0.172-0.105c0,0,0.069,0.06-0.102,0.159l-0.021,0.02L140.694,8.527z M140.702,8.531
			c-0.008,0.038-0.044,0.063-0.083,0.057c-0.038-0.008-0.063-0.045-0.057-0.083c0.008-0.038,0.045-0.063,0.084-0.057
			C140.684,8.456,140.709,8.493,140.702,8.531z M140.948,7.074c0,0,0.248-0.002,0.218,0.157c0,0-0.056,0.184-0.288-0.006
			c0,0,0.149,0.235-0.038,0.275c0,0-0.205-0.01-0.132-0.286c0,0-0.127,0.197-0.231,0.06c0,0-0.122-0.229,0.17-0.202
			c0,0-0.188-0.104-0.029-0.253c0,0,0.175-0.094,0.178,0.17c0,0,0.13-0.281,0.244-0.152c0,0,0.107,0.092-0.05,0.197L140.948,7.074z
			 M140.865,7.119c0,0,0.186-0.04,0.185,0.058c0,0-0.03,0.176-0.188-0.023l-0.044,0.023c0,0,0.079,0.17,0.011,0.214
			c0,0-0.127,0.049-0.049-0.17l0.015-0.048l-0.047,0.002h-0.021c0,0-0.107,0.129-0.164,0.057c0,0-0.058-0.102,0.097-0.1l0.063,0.004
			l0.02-0.028l0.007-0.032c0,0-0.182-0.061-0.096-0.139c0,0,0.083-0.103,0.103,0.068l0.036,0.026c0,0,0.092-0.189,0.171-0.106
			c0,0,0.069,0.059-0.101,0.159l-0.021,0.019L140.865,7.119z M140.873,7.124c-0.007,0.038-0.044,0.063-0.082,0.057
			c-0.038-0.008-0.064-0.044-0.057-0.082c0.008-0.039,0.044-0.064,0.083-0.057C140.855,7.049,140.88,7.085,140.873,7.124z
			 M140.792,6.208c0,0,0.277,0.037,0.22,0.21c0,0-0.09,0.194-0.32-0.052c0,0,0.13,0.285-0.085,0.302c0,0-0.226-0.044-0.103-0.339
			c0,0-0.172,0.199-0.268,0.029c0,0-0.101-0.273,0.22-0.199c0,0-0.193-0.145,0.007-0.286c0,0,0.211-0.076,0.172,0.216
			c0,0,0.189-0.292,0.297-0.132c0,0,0.104,0.121-0.086,0.213L140.792,6.208z M140.694,6.247c0,0,0.211-0.018,0.196,0.092
			c0,0-0.061,0.19-0.206-0.056l-0.053,0.019c0,0,0.063,0.202-0.021,0.241c0,0-0.149,0.034-0.028-0.196l0.024-0.053l-0.052-0.004
			l-0.025-0.005c0,0-0.14,0.128-0.19,0.04c0,0-0.05-0.123,0.122-0.097l0.07,0.014l0.025-0.028l0.013-0.035
			c0,0-0.193-0.096-0.085-0.169c0,0,0.107-0.103,0.104,0.091l0.035,0.035c0,0,0.132-0.196,0.208-0.091c0,0,0.068,0.076-0.138,0.161
			l-0.026,0.018L140.694,6.247z M140.702,6.253c-0.014,0.041-0.06,0.063-0.101,0.05c-0.041-0.015-0.063-0.059-0.051-0.101
			c0.014-0.041,0.059-0.063,0.101-0.051C140.693,6.166,140.716,6.212,140.702,6.253z M141.494,6.658c0,0,0.121,0.173-0.005,0.229
			c0,0-0.155,0.049-0.136-0.205c0,0-0.093,0.217-0.211,0.105c0,0-0.092-0.148,0.137-0.23c0,0-0.198,0.006-0.152-0.135
			c0,0,0.103-0.195,0.223,0.021c0,0-0.017-0.182,0.164-0.142c0,0,0.151,0.079-0.033,0.206c0,0,0.261-0.043,0.225,0.1
			c0,0-0.014,0.12-0.163,0.059L141.494,6.658z M141.423,6.622c0,0,0.117,0.111,0.048,0.157c0,0-0.137,0.063-0.074-0.144l-0.037-0.02
			c0,0-0.081,0.137-0.146,0.11c0,0-0.094-0.065,0.096-0.116l0.042-0.012l-0.024-0.031l-0.01-0.018c0,0-0.142-0.013-0.12-0.086
			c0,0,0.045-0.091,0.117,0.02l0.028,0.046h0.028l0.026-0.013c0,0-0.045-0.154,0.053-0.133c0,0,0.11,0.01,0,0.105l-0.001,0.037
			c0,0,0.177-0.025,0.157,0.07c0,0-0.01,0.076-0.161,0.005l-0.023-0.005L141.423,6.622z M141.423,6.63
			c-0.03,0.014-0.065,0-0.079-0.03c-0.013-0.03,0-0.067,0.031-0.08c0.03-0.013,0.064,0.001,0.078,0.031
			C141.467,6.58,141.453,6.616,141.423,6.63z M141.303,3.675c0,0,0.253-0.006,0.225,0.159c0,0-0.053,0.188-0.294-0.002
			c0,0,0.155,0.238-0.035,0.281c0,0-0.209-0.008-0.14-0.291c0,0-0.126,0.203-0.235,0.065c0,0-0.129-0.233,0.169-0.21
			c0,0-0.192-0.104-0.032-0.259c0,0,0.178-0.098,0.185,0.171c0,0,0.129-0.289,0.247-0.158c0,0,0.111,0.094-0.048,0.201
			L141.303,3.675z M141.219,3.723c0,0,0.188-0.044,0.188,0.057c0,0-0.027,0.179-0.191-0.022l-0.046,0.025
			c0,0,0.085,0.172,0.016,0.219c0,0-0.129,0.051-0.053-0.173l0.016-0.051L141.1,3.781l-0.022-0.001c0,0-0.108,0.134-0.167,0.062
			c0,0-0.061-0.104,0.098-0.103l0.064,0.002l0.02-0.029l0.006-0.034c0,0-0.187-0.058-0.1-0.14c0,0,0.083-0.106,0.106,0.067
			l0.036,0.027c0,0,0.092-0.195,0.174-0.11c0,0,0.071,0.06-0.102,0.164l-0.021,0.02L141.219,3.723z M141.227,3.727
			c-0.007,0.04-0.045,0.066-0.083,0.059c-0.039-0.006-0.065-0.043-0.06-0.082c0.008-0.039,0.044-0.066,0.083-0.059
			C141.207,3.65,141.233,3.688,141.227,3.727z M143.959,2.281c0,0,0.211-0.006,0.188,0.131c0,0-0.044,0.156-0.245-0.002
			c0,0,0.13,0.197-0.029,0.235c0,0-0.174-0.007-0.115-0.242c0,0-0.106,0.169-0.198,0.054c0,0-0.105-0.193,0.143-0.175
			c0,0-0.16-0.086-0.027-0.215c0,0,0.148-0.081,0.154,0.142c0,0,0.106-0.24,0.204-0.133c0,0,0.093,0.078-0.039,0.17L143.959,2.281z
			 M143.889,2.32c0,0,0.158-0.037,0.158,0.047c0,0-0.024,0.148-0.16-0.019l-0.038,0.021c0,0,0.07,0.145,0.012,0.182
			c0,0-0.106,0.043-0.043-0.144l0.013-0.042l-0.04,0.004l-0.019-0.002c0,0-0.09,0.111-0.139,0.053c0,0-0.051-0.087,0.081-0.086
			l0.054,0.001l0.016-0.024l0.006-0.027c0,0-0.156-0.049-0.084-0.117c0,0,0.069-0.088,0.089,0.057l0.029,0.023
			c0,0,0.077-0.163,0.146-0.093c0,0,0.06,0.05-0.084,0.137l-0.018,0.017L143.889,2.32z M143.896,2.324
			c-0.006,0.032-0.036,0.054-0.069,0.049c-0.032-0.006-0.054-0.037-0.049-0.07c0.006-0.033,0.037-0.055,0.069-0.049
			S143.901,2.291,143.896,2.324z M143.148,2.689c0,0,0.204-0.168,0.286-0.016c0,0,0.077,0.188-0.241,0.188
			c0,0,0.279,0.094,0.153,0.253c0,0-0.176,0.128-0.302-0.147c0,0,0.027,0.246-0.15,0.203c0,0-0.254-0.106,0.004-0.279
			c0,0-0.224,0.039-0.192-0.189c0,0,0.082-0.195,0.26,0.021c0,0-0.081-0.319,0.1-0.288c0,0,0.15,0.004,0.091,0.195L143.148,2.689z
			 M143.111,2.783c0,0,0.126-0.158,0.19-0.076c0,0,0.093,0.164-0.172,0.105l-0.021,0.049c0,0,0.18,0.086,0.153,0.169
			c0,0-0.073,0.124-0.153-0.106l-0.021-0.052l-0.035,0.034l-0.02,0.014c0,0-0.003,0.179-0.096,0.158c0,0-0.116-0.047,0.013-0.146
			l0.054-0.04l-0.003-0.036l-0.016-0.031c0,0-0.189,0.072-0.172-0.051c0,0-0.001-0.139,0.129-0.013l0.048-0.002
			c0,0-0.05-0.217,0.07-0.202c0,0,0.097,0.003,0.023,0.2l-0.005,0.029L143.111,2.783z M143.12,2.781
			c0.021,0.035,0.007,0.082-0.029,0.102s-0.082,0.006-0.102-0.031c-0.02-0.035-0.006-0.08,0.03-0.102
			C143.056,2.73,143.101,2.744,143.12,2.781z M143.537,5.74c0,0,0.194-0.063,0.21,0.07c0,0,0.002,0.156-0.228,0.066
			c0,0,0.175,0.147,0.039,0.224c0,0-0.163,0.043-0.174-0.191c0,0-0.051,0.186-0.168,0.104c0,0-0.151-0.149,0.084-0.201
			c0,0-0.173-0.034-0.086-0.191c0,0,0.115-0.115,0.182,0.09c0,0,0.033-0.252,0.154-0.18c0,0,0.106,0.047,0.009,0.167L143.537,5.74z
			 M143.484,5.797c0,0,0.135-0.078,0.159-0.002c0,0,0.019,0.146-0.154,0.027l-0.029,0.03c0,0,0.105,0.113,0.063,0.165
			c0,0-0.088,0.068-0.079-0.121l-0.001-0.041l-0.036,0.013l-0.019,0.005c0,0-0.052,0.127-0.113,0.086c0,0-0.07-0.067,0.051-0.102
			l0.05-0.014l0.01-0.026l-0.004-0.027c0,0-0.157-0.003-0.109-0.085c0,0,0.041-0.101,0.098,0.027l0.034,0.012
			c0,0,0.026-0.17,0.109-0.124c0,0,0.068,0.028-0.041,0.149l-0.012,0.02L143.484,5.797z M143.491,5.798
			c0.004,0.031-0.019,0.06-0.051,0.064c-0.031,0.003-0.061-0.02-0.064-0.052c-0.003-0.031,0.02-0.06,0.052-0.063
			C143.459,5.743,143.487,5.766,143.491,5.798z M142.018,8.84c0,0-0.052-0.264,0.124-0.264c0,0,0.206,0.021,0.052,0.308
			c0,0,0.22-0.206,0.301-0.015c0,0,0.029,0.221-0.279,0.198c0,0,0.235,0.097,0.11,0.235c0,0-0.221,0.177-0.249-0.139
			c0,0-0.074,0.22-0.265,0.08c0,0-0.135-0.169,0.145-0.224c0,0-0.325-0.084-0.211-0.229c0,0,0.078-0.134,0.221,0.014L142.018,8.84z
			 M142.082,8.92c0,0-0.08-0.19,0.024-0.209c0,0,0.192-0.003,0.013,0.205l0.034,0.043c0,0,0.164-0.12,0.226-0.055
			c0,0,0.076,0.125-0.172,0.086l-0.054-0.007l0.011,0.05l0.004,0.023c0,0,0.158,0.089,0.094,0.162c0,0-0.098,0.083-0.125-0.082
			l-0.01-0.067l-0.033-0.016h-0.037c0,0-0.027,0.205-0.128,0.128c0,0-0.125-0.066,0.052-0.121l0.021-0.043
			c0,0-0.221-0.062-0.146-0.162c0,0,0.049-0.086,0.189,0.076l0.024,0.019L142.082,8.92z M142.085,8.909
			c0.042,0,0.077,0.035,0.077,0.077s-0.035,0.077-0.077,0.077s-0.076-0.035-0.076-0.077S142.043,8.909,142.085,8.909z M143.281,9.41
			c0,0,0.193-0.063,0.209,0.071c0,0,0.002,0.156-0.227,0.065c0,0,0.175,0.147,0.037,0.225c0,0-0.162,0.042-0.173-0.191
			c0,0-0.052,0.186-0.167,0.104c0,0-0.152-0.148,0.082-0.2c0,0-0.172-0.034-0.085-0.19c0,0,0.115-0.117,0.183,0.088
			c0,0,0.032-0.252,0.152-0.179c0,0,0.108,0.047,0.01,0.166L143.281,9.41z M143.228,9.467c0,0,0.135-0.077,0.158,0
			c0,0,0.02,0.144-0.152,0.027l-0.03,0.029c0,0,0.105,0.113,0.063,0.164c0,0-0.088,0.069-0.08-0.12V9.525l-0.036,0.013l-0.019,0.005
			c0,0-0.052,0.128-0.113,0.086c0,0-0.071-0.065,0.052-0.102l0.05-0.013l0.008-0.027l-0.003-0.026c0,0-0.156-0.003-0.108-0.086
			c0,0,0.04-0.1,0.097,0.028l0.034,0.013c0,0,0.025-0.172,0.108-0.125c0,0,0.069,0.029-0.04,0.148l-0.012,0.021L143.228,9.467z
			 M143.233,9.468c0.005,0.032-0.019,0.061-0.049,0.064c-0.032,0.004-0.062-0.019-0.065-0.051c-0.004-0.031,0.019-0.06,0.051-0.064
			C143.201,9.413,143.23,9.437,143.233,9.468z M144.909,6.138c0,0,0.087,0.185-0.042,0.218c0,0-0.155,0.022-0.095-0.217
			c0,0-0.124,0.191-0.219,0.066c0,0-0.063-0.155,0.167-0.197c0,0-0.189-0.026-0.124-0.151c0,0,0.129-0.171,0.21,0.056
			c0,0,0.013-0.176,0.178-0.109c0,0,0.131,0.1-0.063,0.192c0,0,0.254,0,0.197,0.129c0,0-0.032,0.112-0.165,0.031L144.909,6.138z
			 M144.848,6.093c0,0,0.093,0.124,0.021,0.157c0,0-0.141,0.038-0.047-0.149l-0.032-0.024c0,0-0.1,0.118-0.156,0.083
			c0,0-0.08-0.078,0.109-0.095l0.041-0.007l-0.018-0.033l-0.007-0.018c0,0-0.134-0.035-0.1-0.102c0,0,0.056-0.078,0.107,0.037
			l0.019,0.049l0.028,0.004l0.026-0.006c0,0-0.019-0.155,0.07-0.119c0,0,0.105,0.027-0.016,0.1l-0.007,0.036
			c0,0,0.173,0.004,0.138,0.091c0,0-0.021,0.072-0.153-0.02l-0.022-0.01L144.848,6.093z M144.847,6.1
			c-0.031,0.008-0.063-0.011-0.07-0.042c-0.009-0.031,0.011-0.063,0.042-0.07c0.03-0.008,0.062,0.012,0.07,0.042
			C144.896,6.061,144.878,6.092,144.847,6.1z M144.152,5.503c0,0,0.001,0.203-0.131,0.179c0,0-0.148-0.046,0.006-0.236
			c0,0-0.192,0.121-0.225-0.032c0,0,0.009-0.168,0.235-0.108c0,0-0.162-0.104-0.049-0.189c0,0,0.188-0.1,0.166,0.139
			c0,0,0.086-0.152,0.207-0.021c0,0,0.076,0.144-0.14,0.146c0,0,0.231,0.106,0.125,0.2c0,0-0.077,0.088-0.161-0.041L144.152,5.503z
			 M144.116,5.436c0,0,0.031,0.152-0.048,0.15c0,0-0.144-0.025,0.02-0.154l-0.019-0.037c0,0-0.14,0.066-0.177,0.01
			c0,0-0.038-0.104,0.14-0.039l0.041,0.012l-0.003-0.038l0.001-0.019c0,0-0.105-0.088-0.048-0.134c0,0,0.085-0.048,0.082,0.079
			l-0.002,0.051l0.022,0.017l0.027,0.005c0,0,0.05-0.148,0.113-0.078c0,0,0.084,0.068-0.056,0.084l-0.021,0.029
			c0,0,0.155,0.076,0.086,0.142c0,0-0.049,0.058-0.13-0.083l-0.016-0.018L144.116,5.436z M144.112,5.441
			c-0.031-0.006-0.052-0.037-0.047-0.068c0.007-0.031,0.037-0.051,0.068-0.046c0.031,0.006,0.052,0.036,0.046,0.067
			S144.144,5.447,144.112,5.441z M142.134,7.688c0,0,0.254-0.005,0.226,0.159c0,0-0.053,0.188-0.294-0.002
			c0,0,0.155,0.238-0.035,0.283c0,0-0.209-0.01-0.139-0.292c0,0-0.127,0.202-0.236,0.064c0,0-0.129-0.233,0.169-0.21
			c0,0-0.192-0.103-0.032-0.258c0,0,0.178-0.099,0.185,0.171c0,0,0.129-0.29,0.247-0.159c0,0,0.111,0.094-0.048,0.202L142.134,7.688
			z M142.051,7.735c0,0,0.188-0.043,0.188,0.057c0,0-0.027,0.18-0.191-0.021l-0.046,0.024c0,0,0.085,0.173,0.016,0.22
			c0,0-0.129,0.05-0.053-0.174l0.016-0.05l-0.049,0.003l-0.022-0.001c0,0-0.108,0.134-0.167,0.062c0,0-0.061-0.104,0.098-0.103
			l0.064,0.003l0.02-0.029l0.005-0.033c0,0-0.186-0.059-0.099-0.141c0,0,0.083-0.106,0.106,0.068l0.035,0.026
			c0,0,0.093-0.194,0.175-0.11c0,0,0.071,0.059-0.102,0.163l-0.021,0.021L142.051,7.735z M142.059,7.74
			c-0.007,0.04-0.045,0.065-0.084,0.06c-0.038-0.008-0.065-0.045-0.059-0.084c0.008-0.039,0.044-0.066,0.084-0.059
			C142.039,7.664,142.065,7.701,142.059,7.74z M142.833,4.904c0,0,0.2,0.133,0.091,0.245c0,0-0.144,0.118-0.229-0.161
			c0,0-0.007,0.27-0.18,0.201c0,0-0.159-0.119,0.049-0.302c0,0-0.209,0.09-0.22-0.077c0,0,0.025-0.252,0.246-0.072
			c0,0-0.094-0.185,0.114-0.219c0,0,0.193,0.02,0.052,0.232c0,0,0.258-0.155,0.279,0.01c0,0,0.036,0.133-0.147,0.133L142.833,4.904z
			 M142.741,4.896c0,0,0.172,0.068,0.118,0.146c0,0-0.118,0.124-0.139-0.121l-0.049-0.006c0,0-0.027,0.18-0.106,0.18
			c0,0-0.128-0.03,0.053-0.164l0.038-0.031l-0.039-0.023l-0.017-0.013c0,0-0.156,0.045-0.163-0.042c0,0,0.009-0.113,0.132-0.027
			l0.048,0.036l0.031-0.011l0.022-0.024c0,0-0.113-0.146-0.001-0.163c0,0,0.122-0.037,0.045,0.11l0.015,0.04
			c0,0,0.177-0.102,0.196,0.008c0,0,0.022,0.086-0.169,0.074l-0.026,0.004L142.741,4.896z M142.745,4.904
			c-0.026,0.026-0.069,0.027-0.096,0c-0.027-0.025-0.027-0.068-0.001-0.096s0.069-0.028,0.096-0.002
			C142.771,4.834,142.771,4.877,142.745,4.904z"/>
	</g>
	<g>
		<path fill-rule="evenodd" clip-rule="evenodd" fill="#0B008A" d="M88.075,5.137c0,0-0.203,0.039-0.289,0.155
			c0,0-0.087-0.063-0.138,0.063c0,0-0.01,0.127-0.187,0.255l-0.431-0.255l0.077-0.088c0,0,0.02-0.041,0.018-0.109
			c0,0,0.021-0.076-0.05-0.129l-0.269-0.221c0,0-0.06-0.035-0.135,0l-0.018-0.021c0,0-0.13-0.133-0.135-0.017
			c0,0-0.024,0.087-0.083,0.14c0,0-0.68-0.439-0.757-1.116l-0.005-0.125l0.026-0.057l-0.047-0.023L85.609,3.66l-0.023,0.018
			c0,0-0.393,0.486-0.679,1.011c0,0-0.023,0.033-0.056,0.1l0.072,0.032L85,4.766c0,0,0.453-0.027,0.529-0.017l-0.122,0.238
			c0,0-0.151,0.211,0.058,0.306l0.258,0.137c0,0,0.403,0.139,0.547,0.277c0,0-0.336,0.648-0.458,0.907c0,0-0.183,0.381,0.017,0.364
			c0,0,0.358,0.039,0.636-0.033c0,0-0.283,0.783-0.239,1.281c0,0-0.814,0.928-1.172,1.449l-0.087,0.106l0.029,2.173l-0.029,0.059
			v0.153l0.106-0.009c0,0-0.01,0.241-0.57,0.348c0,0-0.328,0.163,0.289,0.154l0.531-0.038c0,0,0.088-0.203,0.242-0.021h0.164
			c0,0,0.019-0.192-0.01-0.356l0.136-0.096l-0.348-1.895l0.453-0.579l-0.173,0.541l1.438,1.426l-0.039,0.117l0.175,0.066
			c0,0,0.096,0.174-0.212,0.541c0,0-0.223,0.318,0.124,0.174c0,0,0.406-0.328,0.444-0.474l0.039-0.115l0.078,0.038l0.222-0.154
			c0,0-0.069-0.25-0.193-0.348l0.048-0.106c0,0-0.145-0.328-0.744-0.704l-0.665-0.615l0.53-0.686l0.415,0.231l0.01-0.27l0.367,0.115
			c0,0-0.184-1.034-0.338-1.266l0.058-0.607c0,0,0.271-0.271,0.521-0.406c0,0,0.754-0.492,0.608-0.647l-0.213-0.145l-0.038-0.125
			L88.278,6.16c0,0-0.019-0.125,0.067-0.222c0,0,0.106-0.097,0.174-0.116c0,0,0.29-0.236,0.131-0.387c0,0,0.049-0.227-0.146-0.322
			c0,0-0.066-0.016-0.134-0.082c0,0-0.218-0.102-0.247,0.023l-0.044,0.02L88.075,5.137z M85.685,4.805l0.419,0.209l-0.006,0.039
			c-0.06,0.088-0.005,0.116-0.005,0.116c0.071,0.032,0.188-0.078,0.188-0.078l0.111,0.056l0.027,0.027
			c-0.027,0.045,0.016,0.171,0.016,0.171l-0.109,0.249l-0.652-0.311c-0.359-0.1-0.145-0.277-0.145-0.277l0.101-0.207L85.685,4.805z
			 M85.47,4.043c0,0,0.071,0.232,0.176,0.325l-0.286-0.149L85.47,4.043z M85.314,4.291l0.381,0.198c0,0-0.324-0.094-0.446-0.094
			L85.314,4.291z M85.591,3.938c0,0.045,0.038,0.204,0.038,0.204l-0.114-0.165l0.059-0.115L85.591,3.938z M87.384,5.814l0.023,0.066
			h-0.184l-0.032-0.078l-0.105,0.022l-0.016-0.21L87.384,5.814z M87.527,6.217l0.045,0.056l0.265-0.011L87.622,6.51l-0.095-0.215
			L87.484,6.25l-0.188,0.033l0.149-0.231L87.527,6.217z M86.517,6.321l-0.101-0.039l0.077-0.255L86.517,6.321z"/>
	</g>
	<g>
		<path fill-rule="evenodd" clip-rule="evenodd" fill="#0B008A" d="M104.802,11.177c0,0-0.043,0.77,0.04,1.052
			c0,0-0.015-0.299,0.056-0.426c0,0-0.053,0.282-0.018,0.588c0,0,0.02-0.39,0.133-0.561c0,0,0.104-0.129,0.138-0.233
			c0,0-0.022,0.144-0.103,0.269c0,0-0.105,0.193-0.096,0.518c0,0,0.093-0.146,0.132-0.366c0,0-0.002,0.142-0.042,0.262
			c0,0-0.017,0.075-0.011,0.115c0,0,0.12-0.527,0.281-0.563c0,0-0.172,0.134-0.199,0.532c0,0,0.068-0.239,0.15-0.333
			c0,0-0.058,0.107-0.087,0.313c0,0,0.043-0.07,0.092-0.219c0,0,0.056-0.147,0.183-0.247l0.055-0.062c0,0-0.039,0.103-0.116,0.178
			c0,0-0.074,0.085-0.127,0.244c0,0-0.024,0.068-0.046,0.178c0,0,0.095-0.271,0.205-0.313c0,0-0.106,0.117-0.135,0.3
			c0,0,0.045-0.066,0.089-0.146c0,0,0.12-0.22,0.236-0.242c0,0-0.17,0.13-0.223,0.338c0,0,0.053-0.067,0.123-0.151
			c0,0,0.188-0.248,0.292-0.267c0,0-0.311,0.253-0.407,0.563h-0.625c0,0,0-0.114-0.165-0.246c0,0,0.051,0.013,0.101,0.058
			c0,0-0.083-0.185-0.208-0.122c0,0,0.12-0.143,0.278,0.193c0,0-0.058-0.257-0.221-0.483c0,0,0.115,0.024,0.254,0.446
			c0,0-0.009-0.171-0.036-0.288c0,0-0.078-0.47,0.003-0.777L104.802,11.177z"/>
	</g>
	<g>
		<path fill-rule="evenodd" clip-rule="evenodd" fill="#0B008A" d="M41.747,7.425l-0.604,0.62L41.001,8.26c0,0,0.025,0.135,0,0.229
			c-0.037,0.137-0.195,0.288-0.195,0.288l0.151,0.158c0,0,0.238-0.414,0.486-0.489c0,0,0.284-0.496,0.604-0.654
			c0,0,0.559,0.499,0.908,0.487c0,0,0.284,0.009,0.448-0.024c0,0,0.164-0.006,0.344,0.248c0,0,0.215,0.29,0.403,0.323
			c0,0,0.267,0.029,0.367,0.269c0,0-0.026,0.46,0.365,0.663c0,0-0.344-0.245-0.272-0.729c0,0,0.55,0.048,0.667-0.069
			c0,0,0.11-0.122,0.328-0.006c0,0,0.239,0.107,0.4,0.012c0,0,0.144-0.102,0.284,0.054c0,0-0.071-0.143-0.239-0.137
			c0,0-0.29,0.068-0.415-0.013c0,0-0.099-0.08-0.117-0.095c0,0,0.123-0.442,0.535-0.518c0,0-0.277-0.023-0.511,0.296
			c0,0-0.116,0.171-0.221,0.239c0,0-0.138,0.03-0.194,0.096c0,0-0.41,0.087-0.771-0.146c0,0-0.836-0.526-0.699-0.75
			c0,0,0.451-0.564,0.975-0.4c0,0-0.18-0.191-0.598-0.006c0,0-0.317,0.152-0.589,0.37c0,0-0.167,0.239-0.621,0.051
			c0,0-0.563-0.232-0.49-0.463c0,0,0.08-0.2,0.445-0.269l0.113-0.019c0,0,0.589-0.11,1.079-0.006c0,0,0.813,0.104,1.664-0.271
			c0,0,1.046-0.502,1.473-0.326c0,0,0.033,0.078-0.215,0.266l-0.071,0.045l0.113-0.026c0,0,0.182-0.072,0.251-0.186l0.023-0.009
			c0,0,0.186-0.015,0.239,0.338c0,0,0.065,0.427-0.152,0.522l-0.17,0.042c0,0-0.362-0.018-0.529,0.225c0,0-0.09,0.104-0.11,0.26
			L46.484,8.38c0,0,0.006,0.152-0.206,0.254c0,0,0.176,0.006,0.251-0.225c0,0-0.01-0.311,0.113-0.445c0,0,0.113-0.207,0.407-0.214
			c0,0,0.375-0.021,0.498-0.157c0,0,0.068-0.116,0.28,0.232c0,0,0.219,0.212,0.457,0.239c0,0,0.116,0.327,0.267,0.457
			c0,0-0.205-0.286-0.178-0.457c0,0,0.533,0.041,0.711-0.205c0,0-0.396,0.307-0.949,0.103c0,0-0.52-0.232-0.526-0.99
			c0,0,1.147,0.806,2.315,0.73c0,0,1.161-0.246,1.674-0.034l0.361,0.164c0,0,0.246,0.041,0.137,0.164c0,0-0.137,0.226-0.075,0.313
			v0.049c0,0-0.301,0-0.41,0.074c0,0-0.103,0.048-0.409-0.116c0,0,0.26,0.232,0.491,0.144c0,0,0.396-0.062,0.444,0.034l-0.007,0.089
			c0,0-0.328,0.301-0.034,0.52c0,0-0.13-0.185,0.048-0.444c0,0,0.164-0.13,0.007-0.321c0,0-0.089-0.266,0.178-0.272
			c0,0,0.635,0.553,1.195,0.56l0.238,0.007l0.089,0.021c0,0,0.062,0.157,0.26,0.232c0,0,0.226,0.048,0.294,0.219l0.075,0.164
			c0,0-0.046-0.24-0.155-0.322c0,0-0.454-0.225-0.358-0.361c0,0,0.074-0.144,0.6-0.409c0,0,0.117-0.12,0.383-0.069l0.11,0.016
			c0,0-0.218-0.114-0.499-0.004c0,0-0.19,0.081-0.547,0.309c0,0-0.161,0.185-0.801,0.012c0,0-0.29-0.107-0.666-0.431
			c0,0-0.514-0.442-1.381-0.598l0.093-0.051c0,0,0.601-0.299,0.798-0.475c0,0,0.374-0.311,0.732-0.036c0,0,0.173,0.167,0.35,0.228
			c0,0,0.113,0.099,0.161,0.215c0,0-0.026-0.212-0.233-0.313c0,0-0.263-0.096-0.206-0.194c0,0,0.403,0.021,0.563-0.104l0.257-0.197
			c0,0-0.27,0.197-0.392,0.224c0,0-0.164,0.027-0.499-0.042c0,0-0.248-0.051-0.487,0c0,0,0.272-0.296,0.26-0.612
			c0,0-0.023-0.319-0.185-0.528c0,0-0.359-0.21-0.155-0.652c0,0,0.155-0.209,0.095-0.412c0,0-0.012,0.168-0.06,0.275
			c0,0-0.203,0.239-0.144,0.442l0.048,0.209c0,0-0.238,0.036-0.609-0.239c0,0,0.167,0.257,0.615,0.316c0,0,0.563,0.281,0.186,0.986
			c0,0-0.418,0.442-1.052,0.711c0,0,0.132-0.179,0.119-0.322l0.239-0.036L51.456,6.77c0,0-0.054-0.281,0.341-0.407
			c0,0-0.322-0.041-0.424,0.407c0,0-0.055,0.454-0.622,0.645c0,0-0.872,0.222-1.577,0.024l0.185-0.084l0.162,0.054
			c0,0-0.216-0.077-0.055-0.185c0,0,0.264-0.228,0.341-0.406c0,0,0.264-0.168,0.467-0.216c0,0,0.221-0.023,0.299-0.131
			c0,0,0.399-0.096,0.633,0.054c0,0-0.107-0.21-0.514-0.144l0.161-0.251c0,0-0.263,0.286-0.418,0.353c0,0-0.466,0.077-0.634,0.263
			c0,0-0.018-0.418-0.107-0.598c0,0-0.138-0.383,0.329-0.968c0,0-0.431,0.334-0.413,0.872l0.036,0.222c0,0-0.274-0.197-0.502-0.222
			l0.054-0.149c0,0-0.09,0.341-0.514,0.042c0,0,0.065,0.18,0.412,0.167c0,0,0.454,0,0.622,0.502c0,0-0.013,0.442-0.395,0.592
			l-0.042-0.006c0,0-0.019-0.125-0.174-0.299c0,0-0.125-0.179-0.209-0.221c0,0-0.006-0.251-0.269-0.155l-0.054,0.083l-0.102,0.078
			h0.107c0,0-0.06,0.293,0.173,0.395l0.102,0.071l0.09,0.019L48.94,7.295l0.048-0.096l0.029,0.126l0.03-0.108
			c0,0,0.054,0,0.119-0.023l0.042,0.09c0,0-0.137,0.071-0.424,0.023c0,0-0.532-0.096-1.255-0.609c0,0,0.388-0.173,0.269-0.418
			l-0.006-0.107l0.119-0.024l-0.096-0.036c0,0-0.209-0.232-0.311,0.013l0.019,0.083c0,0-0.18,0.174-0.251,0.27l-0.048,0.006
			c0,0-0.239-0.138-0.49-0.072c0,0,0.4-0.334,0.472-0.974c0,0,0.09-0.896,0.574-0.986l0.113-0.042c0,0,0.335-0.083,0.514,0.072
			c0,0,0.275,0.203,0.651,0.245c0,0,0.293,0.096,0.371,0.556c0,0-0.03-0.425-0.222-0.568c0,0,0.18-0.029,0.574-0.364
			c0,0-0.574,0.442-1.082,0.186c0,0-0.478-0.371-0.92-0.239l-0.06,0.03c0,0,0.334-0.502,0.776-0.61c0,0,0.364-0.113,0.604-0.292
			c0,0,0.502-0.174,0.724-0.019c0,0-0.061-0.167-0.544-0.131c0,0,0.341-0.306,0.389-0.557c0,0-0.27,0.479-0.706,0.676l-0.675,0.269
			c0,0,0.251-0.483,0.096-0.849c0,0,0.125,0.592-0.27,0.944c0,0-0.657,0.502-0.944,1.243c0,0-0.071-0.269-0.19-0.442
			c0,0-0.174-0.388-0.013-0.741c0,0-0.286,0.389,0,0.861c0,0,0.27,0.759-0.173,1.314c0,0-0.418,0.615-1.362,0.711l0.125-0.257
			c0,0,0.299-0.431,0.299-0.532l0.27-0.269c0,0,0.573,0.065,0.759-0.161c0,0-0.316,0.203-0.651,0.09V5.496
			c0,0-0.012-0.353,0.167-0.55c0,0-0.197,0.144-0.197,0.448L46.18,5.46c0,0-0.149,0.365-0.364,0.197c0,0,0.023-0.227-0.27-0.43
			c0,0-0.096-0.019-0.048-0.335c0,0-0.167,0.257,0.065,0.466c0,0,0.18,0.144,0.186,0.413l-0.023,0.215l-0.036,0.107
			c0,0-0.418,0.724-1.076,0.854c0,0-0.657,0.072-1.326,0.012c0,0,0.514-0.418,0.646-0.896l0.398-0.971c0,0,0.144-0.519,0.724-0.621
			c0,0,0.759-0.137,1.045-0.396c0,0,0.191-0.143,0.52,0.191c0,0-0.014-0.157-0.287-0.246l-0.164-0.048c0,0,0.369-0.204,0.273-0.689
			c0,0,0.116,0.383-0.478,0.771c0,0-0.342,0.267-0.82,0.314c0,0-0.457,0.068-0.587,0.212c0,0,0.239-0.39,0.737-0.561
			c0,0,0.431-0.136,0.533-0.361c0,0-0.321,0.286-0.643,0.32c0,0,0.055-0.361-0.034-0.478c0,0,0.048,0.267-0.014,0.478
			c0,0-0.58,0.376-0.785,0.793L44.01,5.448c0,0-0.007-0.273-0.164-0.424c0,0-0.088-0.122,0.116-0.238c0,0-0.293,0.157-0.149,0.307
			c0,0,0.177,0.144,0.143,0.314l-0.068,0.349c0,0-0.225,0.915-1.502,1.277c0,0-0.308,0.108-0.561,0.327L41.747,7.425z"/>
	</g>
	<path fill="#0B008A" d="M88.092,4.976c0,0,0.193-0.116,0.35-0.372c0,0,0.146-0.026,0.459,0.332c0,0,0.194,0.217,0.192,0.405
		c0,0-0.158,0.037-0.422,0.353c0,0,0.162,0.297-0.012,0.311c0,0-0.057-0.015-0.149-0.109c0,0,0.027-0.205-0.005-0.279
		c0,0-0.165-0.22-0.185-0.242c0,0-0.149-0.089-0.377-0.24L87.88,5.197l-0.015,0.016l-0.006-0.032c0,0-0.145-0.129-0.114-0.195
		c0,0,0.018-0.039,0.067-0.021c0,0,0.06,0.004,0.298,0.16c0,0,0.002-0.033-0.106-0.092c0,0,0.041-0.024,0.068-0.039
		c0,0,0.048,0.015,0.231,0.141c0,0,0.028,0.019,0.013-0.001L88.31,5.119c0,0,0.232-0.201,0.345-0.386L88.63,4.719
		c0,0-0.141,0.2-0.331,0.382c0,0-0.002,0.007-0.013,0.001c0,0-0.013,0.005-0.006-0.011c0,0,0.173-0.161,0.337-0.382
		c0,0-0.035-0.025-0.064-0.04c0,0-0.209,0.273-0.341,0.382c0,0-0.076-0.046-0.113-0.069L88.092,4.976z"/>
</g>
<g>
	<polygon fill="#FFF576" points="101.566,2.436 101.853,2.215 102.831,2.356 102.607,3.585 102.479,3.752 101.795,3.701 	"/>
	<linearGradient id="SVGID_2_" gradientUnits="userSpaceOnUse" x1="103.8711" y1="12.5273" x2="103.8711" y2="4.882813e-004">
		<stop  offset="0" style="stop-color:#0B008A"/>
		<stop  offset="1" style="stop-color:#070055"/>
		<a:midPointStop  offset="0" style="stop-color:#0B008A"/>
		<a:midPointStop  offset="0.5" style="stop-color:#0B008A"/>
		<a:midPointStop  offset="1" style="stop-color:#070055"/>
	</linearGradient>
	<path fill="url(#SVGID_2_)" d="M104.828,12.375c0.044-0.004,0.095-0.008,0.149-0.008c0,0-0.099-0.043-0.149-0.113v-0.15
		c0.037-0.051,0.116-0.105,0.265-0.164v-0.314c0,0-0.214-0.063-0.265-0.166v-0.096c0.021-0.047,0.087-0.098,0.207-0.156l0.116-1.416
		l-0.229,0.014l0.229-0.158c0,0-0.588-0.074,0.043-0.604c0,0,0.098-0.486-0.202-0.543c0,0,0.043-0.115,0.3-0.16
		c0,0-0.354-0.082-0.014-0.742V5.161c0,0-0.236-0.098-0.003-0.315l0.003-0.688c0,0-0.215-0.055-0.206-0.366
		c0,0-0.009-0.174,0.203-0.269V3.23c0,0-0.029,0.322-0.37,0.271c0,0-0.037-0.011-0.077-0.036V3.378
		c0.026,0.029,0.069,0.058,0.131,0.062c0,0,0.207,0,0.253-0.204c0,0,0.048-0.13-0.086-0.25l-0.298-0.29V2.574
		c0.037,0.054,0.095,0.12,0.171,0.188c0,0,0.188,0.156,0.261,0.291l0.004-1.241l-0.004-0.504l-0.051-0.05
		c0,0-0.352,0.098,0.095-0.88l0.024-0.069c0,0-0.072-0.007-0.072-0.112L105.344,0l0.101,0.192c0,0,0.022,0.095-0.076,0.12
		l0.029,0.062c0,0,0.482,0.928,0.104,0.884l-0.05,0.047v2.226c0,0,0.207,0.141,0.207,0.293c0,0,0.014,0.21-0.196,0.319
		c0,0,0,0.213,0.004,0.699c0,0,0.086,0.094,0.098,0.214c0,0-0.019,0.09-0.091,0.12v2.425c0,0,0.341,0.58,0.033,0.746
		c0,0,0.102,0,0.242,0.148c0,0-0.297,0.098-0.185,0.559c0,0,0.642,0.445,0.112,0.58l0.174,0.16l-0.203-0.012l0.175,1.465
		c0,0,0.395,0.211-0.037,0.365v0.348c0,0,0.457,0.244,0.117,0.418c0,0,0.206-0.018,0.51,0.141l-1.584,0.004V12.375L104.828,12.375z
		 M104.828,2.998v0.083c0.047-0.036,0.109-0.029,0.109-0.029c0.131,0.01,0.102,0.155,0.102,0.155
		c-0.095-0.036-0.095,0.037-0.095,0.037c-0.025,0.047,0.055,0.058,0.055,0.058c0.182-0.091,0.043-0.272,0.043-0.272
		C104.948,2.972,104.879,2.977,104.828,2.998L104.828,2.998z M104.828,2.254v0.069c0.062-0.054,0.146-0.086,0.146-0.086
		c0.21-0.138,0.254-0.025,0.254-0.025c0.014,0.196-0.062,0.112-0.062,0.112l-0.008-0.036c-0.058-0.062-0.086-0.007-0.086-0.007
		c-0.016,0.112,0.101,0.105,0.101,0.105c0.108,0.043,0.087-0.199,0.087-0.199c-0.072-0.134-0.196-0.04-0.196-0.04L104.828,2.254
		L104.828,2.254z M104.828,2.251c0.056-0.022,0.084-0.044,0.084-0.044c0.388-0.134,0.348-0.34,0.348-0.34
		c-0.004-0.243-0.178-0.247-0.178-0.247c-0.198-0.007-0.225,0.192-0.225,0.192c-0.018,0.167,0.095,0.219,0.095,0.219
		c0.134,0.058,0.141-0.063,0.141-0.063c0.025-0.112-0.094-0.105-0.094-0.105l-0.036-0.047c0-0.068,0.083-0.097,0.083-0.097
		c0.12,0,0.138,0.13,0.138,0.13c-0.007,0.257-0.254,0.297-0.254,0.297c-0.032,0.011-0.069,0.018-0.102,0.025V2.251z M104.394,12.527
		c0,0,0.109-0.123,0.435-0.152v0.148L104.394,12.527L104.394,12.527z M104.828,12.254c-0.032-0.039-0.042-0.092,0-0.15V12.254
		L104.828,12.254z M104.828,11.459c-0.018-0.029-0.018-0.059,0-0.096V11.459L104.828,11.459z M104.828,3.466
		c-0.072-0.047-0.163-0.146-0.115-0.334c0,0,0.032-0.094,0.115-0.134v0.083c-0.032,0.025-0.054,0.064-0.054,0.134
		c0,0-0.004,0.093,0.054,0.163V3.466L104.828,3.466z M104.828,2.697l-0.051-0.05c0,0-0.203-0.232,0.029-0.381l0.021-0.011v0.069
		c-0.047,0.037-0.079,0.087-0.065,0.149c0,0,0.023,0.039,0.065,0.101V2.697L104.828,2.697z M104.828,2.171
		c-0.547,0.091-0.935-0.435-0.935-0.435c-0.138-0.138-0.591-0.765-0.591-0.765c-0.326-0.406-0.682-0.478-0.906-0.475V0.58
		c0.512-0.011,0.858,0.479,0.858,0.479c0.504,0.783,0.929,1.051,0.929,1.051c0.304,0.207,0.529,0.181,0.645,0.142V2.171
		L104.828,2.171z M102.396,3.758V3.719l0.062,0.003l0.087-0.087l-0.148-0.011v-0.08l0.174,0.007l0.185-1.182l-0.358-0.04V1.925
		c0.094,0.083,0.192,0.2,0.192,0.2l0.46,0.098l-0.185,0.185l-0.226,1.2v0.014l-0.166,0.146L102.396,3.758L102.396,3.758z
		 M102.396,1.812V1.7c0.04-0.018,0.083-0.047,0.102-0.098c0.04-0.094-0.021-0.207-0.102-0.203V1.323
		c0.08,0.003,0.174,0.094,0.192,0.17c0.007,0.029,0.004,0.062-0.008,0.112C102.563,1.686,102.517,1.78,102.396,1.812z
		 M102.396,0.497V0.58c-0.087,0.003-0.178,0.018-0.272,0.054c0,0-0.123,0.072-0.206,0.222V0.681
		c0.062-0.064,0.145-0.119,0.254-0.156C102.172,0.525,102.259,0.497,102.396,0.497L102.396,0.497z M102.396,1.323v0.076
		c-0.021,0-0.044,0.011-0.065,0.025c0.021,0.019,0.032,0.044,0.032,0.073c0,0.051-0.042,0.094-0.098,0.094
		c-0.054,0-0.094-0.043-0.094-0.094c0-0.047,0.032-0.086,0.075-0.094c0.022-0.032,0.074-0.08,0.138-0.08
		C102.39,1.323,102.393,1.323,102.396,1.323L102.396,1.323z M102.396,1.7c-0.072,0.029-0.145,0.022-0.145,0.022
		c-0.214-0.011-0.323-0.29-0.323-0.29c-0.004-0.008-0.008-0.015-0.011-0.021v0.264c0.166,0.196,0.377,0.148,0.377,0.148
		c0.036,0,0.072-0.003,0.102-0.011V1.7L102.396,1.7z M102.396,1.925v0.406l-0.479-0.051V2.019c0.069-0.014,0.104-0.04,0.123-0.058
		c0.04-0.033,0.073-0.065,0.116-0.086c0.09-0.04,0.115-0.029,0.115-0.029C102.31,1.859,102.353,1.889,102.396,1.925L102.396,1.925z
		 M102.396,3.545v0.08L101.961,3.6V3.596l-0.011,0.011l-0.032,0.025V3.567l0.022-0.019l-0.022-0.167V2.52l0.083,1.003V3.52
		L102.396,3.545L102.396,3.545z M102.396,3.719v0.039l-0.479-0.028V3.697L102.396,3.719z M101.918,0.681v0.175
		c-0.008,0.014-0.015,0.029-0.022,0.047V0.707C101.903,0.696,101.91,0.689,101.918,0.681L101.918,0.681z M101.918,1.411v0.264
		c-0.008-0.007-0.015-0.018-0.022-0.029v-0.29C101.903,1.374,101.91,1.392,101.918,1.411L101.918,1.411z M101.918,2.019V2.28H101.9
		l0.018,0.24v0.862l-0.022-0.199V2.019C101.903,2.019,101.91,2.019,101.918,2.019L101.918,2.019z M101.918,3.567v0.065l-0.022,0.022
		V3.592L101.918,3.567L101.918,3.567z M101.918,3.697V3.73h-0.022V3.694L101.918,3.697z M101.896,0.707v0.196
		c-0.05,0.116-0.072,0.265,0,0.453v0.29c-0.05-0.068-0.093-0.159-0.126-0.286V0.943C101.792,0.863,101.831,0.78,101.896,0.707
		L101.896,0.707z M101.896,2.019v1.164l-0.104-0.892l-0.022,0.015v-0.29l0.062,0.007C101.855,2.022,101.878,2.022,101.896,2.019
		L101.896,2.019z M101.896,3.592v0.062l-0.043,0.04h0.043V3.73l-0.126-0.011V3.36l0.054,0.301L101.896,3.592z M101.77,0.943V1.36
		c-0.012-0.043-0.018-0.091-0.025-0.142C101.744,1.218,101.726,1.092,101.77,0.943L101.77,0.943z M101.77,2.016v0.29l-0.167,0.137
		l0.167,0.917v0.359h-0.004v0.003l-0.221-1.225l-0.214,0.011l0.409-0.496L101.77,2.016z"/>
</g>
</svg>
