<?xml version="1.0" encoding="utf-8"?>
<!-- Generator: Adobe Illustrator 15.0.0, SVG Export Plug-In . SVG Version: 6.00 Build 0)  -->
<!DOCTYPE svg PUBLIC "-//W3C//DTD SVG 1.1//EN" "http://www.w3.org/Graphics/SVG/1.1/DTD/svg11.dtd">
<svg version="1.1" id="Layer_1" xmlns="http://www.w3.org/2000/svg" xmlns:xlink="http://www.w3.org/1999/xlink" x="0px" y="0px"
	 width="900px" height="79px" viewBox="0 0 900 79" enable-background="new 0 0 900 79" xml:space="preserve">
<path fill-rule="evenodd" clip-rule="evenodd" fill="#8C3F59" d="M164.933,31.536c0,0,9.048-1.223,12.333,3.71
	c0,0-0.36-4.708-9.894-4.188L164.933,31.536z"/>
<path fill-rule="evenodd" clip-rule="evenodd" fill="#8C3F59" d="M229.159,37.994l-62.76-1.012v2.586L229.159,37.994z"/>
<path fill-rule="evenodd" clip-rule="evenodd" fill="#8C3F59" d="M0.336,28.612l89.745-1.012v2.586L0.336,28.612z"/>
<path fill-rule="evenodd" clip-rule="evenodd" fill="#8C3F59" d="M61.784,33.222c0,0,0.846,11.356,16.083,11.918
	c0,0,18.864-1.574,12.818-12.48c0,0,4.958,3.485,0.121,9.332c0,0-7.014,6.184-18.018,4.048c0,0-6.409-1.125-9.795-7.533
	L61.784,33.222z"/>
<path fill-rule="evenodd" clip-rule="evenodd" fill="#8C3F59" d="M63.211,23.148c0,0,13.06-15.111,45.564-0.27
	c0,0,9.432,3.508,30.618,17.945c0,0,19.445,13.627,35.552,6.881c0,0,2.805-1.664,3.773-5.824c0,0-5.079,11.693-23.822,4.722
	c0,0-10.52-5.284-16.808-9.444c0,0-22.976-16.304-43.533-20.576c0,0-18.743-4.61-28.054,3.261L63.211,23.148z"/>
<path fill-rule="evenodd" clip-rule="evenodd" fill="#8C3F59" d="M735.315,31.536c0,0-9.048-1.223-12.333,3.71
	c0,0,0.36-4.708,9.895-4.188L735.315,31.536z"/>
<path fill-rule="evenodd" clip-rule="evenodd" fill="#8C3F59" d="M671.089,37.994l62.76-1.012v2.586L671.089,37.994z"/>
<path fill-rule="evenodd" clip-rule="evenodd" fill="#8C3F59" d="M899.912,28.612l-89.745-1.012v2.586L899.912,28.612z"/>
<path fill-rule="evenodd" clip-rule="evenodd" fill="#8C3F59" d="M838.464,33.222c0,0-0.847,11.356-16.083,11.918
	c0,0-18.864-1.574-12.818-12.48c0,0-4.958,3.485-0.121,9.332c0,0,7.014,6.184,18.018,4.048c0,0,6.409-1.125,9.795-7.533
	L838.464,33.222z"/>
<path fill-rule="evenodd" clip-rule="evenodd" fill="#8C3F59" d="M837.037,23.148c0,0-13.06-15.111-45.564-0.27
	c0,0-9.432,3.508-30.618,17.945c0,0-19.445,13.627-35.552,6.881c0,0-2.806-1.664-3.773-5.824c0,0,5.079,11.693,23.822,4.722
	c0,0,10.521-5.284,16.808-9.444c0,0,22.976-16.304,43.533-20.576c0,0,18.743-4.61,28.054,3.261L837.037,23.148z"/>
</svg>
