<?xml version="1.0" encoding="utf-8"?>
<!-- Generator: Adobe Illustrator 15.0.0, SVG Export Plug-In . SVG Version: 6.00 Build 0)  -->
<!DOCTYPE svg PUBLIC "-//W3C//DTD SVG 1.1//EN" "http://www.w3.org/Graphics/SVG/1.1/DTD/svg11.dtd">
<svg version="1.1" id="Layer_1" xmlns="http://www.w3.org/2000/svg" xmlns:xlink="http://www.w3.org/1999/xlink" x="0px" y="0px"
	 width="36px" height="40px" viewBox="0 0 36 40" enable-background="new 0 0 36 40" xml:space="preserve">
<g>
	<path fill="#D092A7" d="M27.884,0h0.862c0,0-0.209,3.045,1.53,5.096l0.583,0.784l0.668,0.829c0,0,3.556,3.919,3.472,7.153
		c0,0,0.124,3.369-2.379,7.847c0,0,2.094-4.733,1.496-8.17c0,0-0.603-4.538-5.306-5.699v12.622h-0.912L27.884,0z"/>
	<path fill="#D092A7" d="M21.283,14.798c0,0-1.567,3.832,0.023,7.331c0,0-1.472-1.594-1.472-3.781c0,0-0.048-2.273,1.37-3.49
		L21.283,14.798z"/>
	<path fill="#D092A7" d="M18.709,8.697c0,0-4.844,9.712,0.06,18.921c0,0-8.3-9.025-0.262-18.767L18.709,8.697z"/>
	<path fill="#D092A7" d="M20.209,12.285c0,0-3.085,6.141,0.039,11.962c0,0-5.288-5.705-0.168-11.865L20.209,12.285z"/>
	<path fill="#D092A7" d="M22.199,11.715l3.457,4.26c0,0,0.041-0.145,0.307-0.145h2.395c0,0,0.454,0.042,0.454,0.474v3.869
		c0,0-0.171,0.452-0.511,0.411H26.02c0,0-0.115,0-0.209-0.143l-3.608,4.527L22.199,11.715L22.199,11.715z"/>
</g>
</svg>
